<?xml version="1.0" encoding="iso-8859-1"?>
<!-- Uploaded to: SVG Repo, www.svgrepo.com, Generator: SVG Repo Mixer Tools -->
<svg fill="#000000" height="800px" width="800px" version="1.1" id="Layer_1" xmlns="http://www.w3.org/2000/svg" xmlns:xlink="http://www.w3.org/1999/xlink" 
	 viewBox="0 0 435.88 435.88" xml:space="preserve">
<g id="XMLID_74_">
	<g>
		<g>
			<path d="M109.536,293.802l-64.242,64.242c-17.545,17.545-17.545,46.093,0,63.64c8.499,8.5,19.799,13.18,31.819,13.18
				c12.02,0,23.32-4.68,31.82-13.18l64.243-64.242c26.583,15.453,56.688,23.566,87.8,23.567c0.003,0,0.001,0,0.004,0
				c4,0,7.978-0.144,11.932-0.407L86.374,194.062C84.022,228.141,91.595,262.94,109.536,293.802z"/>
			<path d="M384.705,82.272c-33.053-33.053-76.999-51.256-123.743-51.256s-90.691,18.203-123.744,51.257
				c-21.647,21.646-36.569,47.816-44.517,75.69L309.077,374.34c28.305-8.045,54.248-23.2,75.628-44.58
				C452.938,261.528,452.938,150.504,384.705,82.272z"/>
			<path d="M120,61.016c0-33.084-26.916-60-60-60s-60,26.916-60,60s26.916,60,60,60S120,94.1,120,61.016z M30,61.016
				c0-16.541,13.458-30,30-30s30,13.459,30,30c0,16.543-13.458,30-30,30S30,77.559,30,61.016z"/>
		</g>
	</g>
</g>
</svg>