<svg xmlns="http://www.w3.org/2000/svg" enable-background="new 0 0 50 50" viewBox="0 0 50 50" id="calculator">
  <path fill="#494949" d="M5.95004,16.52734C5.67263,8.15152,3.62437,0.62078,9.78466,0.87836
		c0.48516,0.02029,26.7624,1.11431,26.86301,1.11849c2.34467,0.09751,5.15602-0.15669,6.55036,2.2032
		c1.034,1.75003,0.4624,3.43241,0.46842,5.32068c0.01408,4.4163,0.41814,7.10846,0.67559,26.60544
		c0.04853,3.67503,1.35703,10.58937-2.90365,12.64788c-1.60807,0.77692-4.06946,0.04725-5.87535-0.02795
		C1.21894,47.31613,7.25196,55.8356,5.95004,16.52734z"></path>
  <path fill="#EE9C35" d="M37.83744,23.65308c-0.01582-0.11636-3.37403,0.48397-3.82677-0.44698
		c-0.12371-0.25439,0.26995-2.96703,0.07545-2.99466c1.18214,0.08998,2.37306,0.18978,3.55502,0.0595
		C37.94651,21.21449,37.57524,21.72411,37.83744,23.65308z"></path>
  <path fill="#BFD351" d="M30.61596,23.76505c-0.01582-0.11636-3.37404,0.48397-3.82677-0.44698
		c-0.12371-0.25439,0.26995-2.96703,0.07545-2.99466c1.18214,0.08998,2.37306,0.18978,3.55502,0.05951
		C30.72503,21.32646,30.35376,21.83608,30.61596,23.76505z"></path>
  <path fill="#D7D7D7" d="M23.39449 23.87703c-.01582-.11636-3.37404.48397-3.82677-.44698-.12371-.25439.26995-2.96703.07545-2.99466 1.18214.08998 2.37306.18978 3.55502.0595C23.50355 21.43844 23.13229 21.94806 23.39449 23.87703zM16.17301 23.98901c-.01582-.11636-3.37404.48397-3.82677-.44698-.12371-.25439.26995-2.96703.07545-2.99466 1.18214.08998 2.37306.18978 3.55502.05951C16.28208 21.55042 15.91081 22.06004 16.17301 23.98901z"></path>
  <path fill="#F34B43" d="M37.12573,39.98235c0.0095-0.397-3.54768,2.40886-3.80435-0.69547
		c-0.07014-0.84828,0.92884-10.27109,0.73655-10.32335c1.18581,0.04931,2.37841,0.13048,3.61255-0.57824
		C37.78112,31.78094,37.29369,32.96268,37.12573,39.98235z"></path>
  <path fill="#D7D7D7" d="M30.60478 32.32871c-.01582-.11636-3.37404.48397-3.82677-.44698-.12371-.25439.26995-2.96703.07545-2.99466 1.18214.08998 2.37306.18978 3.55502.0595C30.71385 29.89012 30.34258 30.39974 30.60478 32.32871zM23.3833 32.44069c-.01582-.11636-3.37404.48397-3.82677-.44698-.12371-.25439.26995-2.96703.07545-2.99466 1.18214.08998 2.37306.18978 3.55502.05951C23.49237 30.0021 23.12111 30.51172 23.3833 32.44069zM16.16183 32.55267c-.01582-.11636-3.37404.48397-3.82677-.44698-.12371-.25439.26995-2.96703.07545-2.99466 1.18214.08998 2.37306.18978 3.55502.0595C16.2709 30.11408 15.89963 30.6237 16.16183 32.55267zM30.5936 40.89237c-.01582-.11636-3.37403.48397-3.82677-.44698-.12371-.25439.26995-2.96703.07545-2.99466 1.18214.08998 2.37306.18978 3.55502.0595.15802.48825.1685.52246.12896 1.03064C30.46519 39.32568 30.48776 40.11372 30.5936 40.89237zM23.37212 41.00435c-.01582-.11636-3.37403.48397-3.82677-.44698-.12371-.25439.26995-2.96703.07545-2.99466 1.18214.08998 2.37306.18978 3.55502.05951C23.48119 38.56576 23.10992 39.07538 23.37212 41.00435zM16.15064 41.11633c-.01582-.11636-3.37404.48397-3.82677-.44698-.12371-.25439.26995-2.96703.07545-2.99466 1.18214.08998 2.37306.18978 3.55502.05951C16.25971 38.67773 15.88845 39.18736 16.15064 41.11633z"></path>
  <path fill="#CEEFFA" d="M37.81356,15.79772c-0.72924,0.34198-6.21479-0.92979-25.64246-1.20694
			c-0.95278-0.01359-1.70539-0.85331-1.67148-1.86992l0.15393-4.61455c0.03318-0.99455,0.80791-1.78591,1.74001-1.77275
			c8.36336,0.11812,16.72211,0.51631,25.08463,1.19585c0.90236,0.0751,1.57887,0.90558,1.54671,1.8715
			C38.9702,11.04396,39.54183,14.98723,37.81356,15.79772z"></path>
  <path d="M44.9394,38.17743c-0.18014-2.94541-0.12064-11.06476-0.6333-23.75244
				c-0.33781-8.37198,0.49752-8.49021-0.67725-10.47949c-1.36816-2.31445-3.88428-2.37256-6.10449-2.42334
				c-0.29004-0.00684-0.57617-0.01318-0.85693-0.0249C36.53119,1.49189,10.29096,0.39911,9.8056,0.37861
				C8.23285,0.30927,7.09516,0.70575,6.28607,1.57782C3.80694,4.25211,5.54499,7.33334,5.70062,31.05341
				c0.10645,16.0249,0.12012,18.08398,11.33447,18.08398c24.60349,0,19.81436,0.4917,22.51758,0.4917
				C45.03307,49.62909,45.27121,43.5659,44.9394,38.17743z M35.58393,48.24677C6.3176,47.02909,6.84632,53.01749,6.70062,31.04657
				C6.54916,7.92851,4.88544,4.55916,7.01947,2.258c0.59814-0.646,1.49316-0.93311,2.74414-0.88037
				c0.48535,0.02051,26.76416,1.11475,26.86328,1.11865c0.28564,0.01172,0.57813,0.01855,0.87451,0.02539
				c2.05566,0.04736,4.18115,0.09619,5.26611,1.93262c1.00284,1.69656,0.1928,1.42141,0.53955,10.01123
				c0.52971,13.1318,0.43208,20.49243,0.63428,23.77344C44.7448,51.29454,39.56491,48.41086,35.58393,48.24677z"></path>
  <path d="M37.61371 20.02265c-.99072.10938-2.22949.03662-3.37256-.0498l-.13623-.01074c-.20525-.01385-.35044.224-.21924.39893.29856 2.3772-1.77352 3.96718 3.39697 3.55566.19482-.01514.35059-.02783.46973-.02832.02686.00928.05518.01465.08447.01465.00342 0 .0083-.00098.01318 0 .1377 0 .25-.11182.25-.25 0-.03906-.00928-.07568-.0249-.1084C37.85857 21.87461 38.2493 19.95482 37.61371 20.02265zM37.2436 23.41864c-4.23853.32818-2.81213-.34728-2.85303-2.93311 1.03027.07861 2.14355.13672 3.06641.05518.16621.71147-.07741 1.30912.09619 2.85498C37.46576 23.40107 37.36127 23.40937 37.2436 23.41864zM30.65766 20.30585c-.03613-.11279-.14453-.18652-.26514-.17139-.98975.10791-2.2251.0376-3.3667-.04932l-.14209-.01123c-.12207-.01514-.25293.08789-.26758.22217-.00732.06543.01172.12793.04785.17676.30026 2.34095-1.79477 3.96221 3.39746 3.55615.19482-.01563.35059-.02832.46973-.02881.18846.06282.42693-.12564.32275-.34375C30.61097 21.7828 30.97568 21.28883 30.65766 20.30585zM27.16937 20.59735c1.02979.07813 2.14404.13623 3.06641.05518.16731.71617-.07847 1.29968.09619 2.85498C25.80628 23.78563 27.21562 23.51624 27.16937 20.59735zM23.17084 20.24628c-.99316.10938-2.23389.0376-3.38037-.05029l-.12842-.01025c-.20391-.02085-.35082.22348-.21924.39893.06017.47795-.25584 2.63517-.09961 2.95459.49405 1.01735 3.23596.57871 3.96582.57275.0293.01074.06152.01709.09229.01514.13428.00195.25586-.11035.25586-.25 0-.03906-.00928-.07568-.0249-.1084C23.41562 22.09815 23.81828 20.1902 23.17084 20.24628zM19.94769 20.70917c1.02979.07861 2.14258.13525 3.06641.05518.16731.71617-.07847 1.29968.09619 2.85498C18.58524 23.921 19.99319 23.5804 19.94769 20.70917zM12.5766 20.30878l-.13574-.01074c-.21412-.01849-.34639.22776-.21973.39893.05156.40201-.24363 2.65824-.09961 2.95459.49189 1.01291 3.10122.5763 3.96631.57275.17079.0579.34709-.0725.34766-.23535 0-.03906-.00928-.07568-.0249-.1084C15.8109 19.25619 17.83321 20.71072 12.5766 20.30878zM12.57953 23.45575c-.05709-.24351.15674-2.01762.14697-2.63428 1.0293.07813 2.14258.13721 3.06592.05518.16621.71147-.07741 1.30912.09619 2.85498C15.28873 23.7685 12.8693 24.02359 12.57953 23.45575zM37.79193 28.16718c-.07617-.04248-.16992-.04199-.24609.00146-.88379.50732-1.74219.57568-2.46533.57568-.29297 0-.58447-.01221-.87598-.0249l-.13623-.00586c-.125.00732-.23779.08594-.25732.21191-.00781.04932 0 .09814.01953.14111.03857.3999-.20117 3.11719-.39453 5.31055-.24756 2.81104-.39551 4.54541-.36377 4.93018.1167 1.41309.89063 1.70996 1.51953 1.70996.71436-.00049 1.51904-.38037 2.05127-.63184.13477-.06396.29541-.13965.38232-.17432.0293.0127.06104.02002.09473.021.15479-.00439.25244-.10596.25586-.24414.08447-3.53369.24805-5.55811.37939-7.18506.12793-1.58447.22021-2.72852.16504-4.42578C37.91742 28.28974 37.8686 28.20966 37.79193 28.16718zM37.25678 32.76239c-.12891 1.5957-.28857 3.57227-.375 6.97119-.10791.0376-.24805.10303-.45215.19971-.49219.23242-1.23584.5835-1.83789.58398-.39404 0-.92871-.12988-1.02148-1.25098-.03027-.37012.16992-2.64502.36377-4.84521.28369-3.21875.40088-4.59326.39404-5.1958.25049.01025.50098.01904.75244.01904.69141 0 1.49805-.05859 2.35059-.45361C37.4599 30.24921 37.37299 31.32245 37.25678 32.76239zM30.64643 28.86933c-.03662-.1123-.14648-.18311-.26514-.17139-.99414.10938-2.23438.0376-3.38037-.05029l-.12842-.01025c-.12939-.01221-.25244.0874-.26758.22217-.00732.06543.01172.12744.04785.17676.29302 2.28445-1.82271 3.96492 3.39746 3.55615.19434-.01514.35059-.02783.46973-.02832.0293.00977.06152.01367.0918.01465.15618-.00132.3186-.17491.23096-.3584C30.72602 31.3205 30.96445 29.8523 30.64643 28.86933zM27.15814 29.16083c1.0293.07813 2.14355.13623 3.06641.05518.16732.71622-.07879 1.30028.09668 2.85547C25.68993 32.3545 27.20305 31.99498 27.15814 29.16083zM19.78607 28.76044l-.13525-.01074c-.13281-.01465-.25342.08838-.26758.22266-.00684.06543.01172.12744.04834.17627.29405 2.34133-1.79063 3.96188 3.39697 3.55566.19482-.01514.35059-.02783.46973-.02832.18643.06636.4244-.13094.32275-.34375C23.01948 27.69343 25.04828 29.15814 19.78607 28.76044zM19.93646 29.27314c1.02881.07861 2.14307.13672 3.06641.05518.16731.71617-.07847 1.29968.09619 2.85498C18.58108 32.46093 19.98237 32.17527 19.93646 29.27314zM16.20355 29.09345c-.03662-.11279-.146-.1875-.26514-.17139-.99023.10889-2.22559.0376-3.3667-.04932l-.14209-.01123c-.12549-.00879-.25293.08789-.26758.22217-.00732.06543.01172.12793.04785.17676.25105 1.95724-1.40618 3.62695 1.97412 3.62695.52148 0 1.04248-.04102 1.42334-.0708.19482-.01563.35059-.02832.46973-.02881.02881.01025.05713.01221.0918.01465.14014-.01514.25586-.10986.25586-.25 0-.03906-.00928-.07568-.0249-.1084C16.15687 30.5704 16.52158 30.07642 16.20355 29.09345zM15.5683 32.31806c-.37256.0293-.88232.06934-1.38428.06934-2.43302 0-1.42956-.52903-1.46875-3.00244 1.02979.07764 2.14453.13574 3.06641.05518.16731.71617-.07847 1.29968.09619 2.85498C15.79047 32.30048 15.68598 32.30878 15.5683 32.31806zM30.37006 37.26191c-.99268.10889-2.22949.03662-3.37354-.0498l-.13525-.01074c-.14111-.01709-.25342.08789-.26758.22266-.00684.06494.01172.12744.04785.17627.05146.40121-.24418 2.65801-.09912 2.95459.49189 1.01291 3.10122.5763 3.96631.57275.19983.06774.42336-.13311.32275-.34375C30.73945 40.06994 31.05894 37.18022 30.37006 37.26191zM27.00043 40.35859c-.03125-.1333.0249-.81494.06641-1.3125.05176-.62598.08447-1.04395.08008-1.32129 1.03223.07861 2.15137.13721 3.07373.0542.17819.57459-.09614 1.16172.08936 2.85596C29.92138 40.65883 27.29562 40.94002 27.00043 40.35859zM23.14838 37.37372c-.98975.1084-2.2251.03662-3.36621-.04932l-.14209-.01123c-.12598-.00781-.25293.08789-.26758.22217-.00732.06543.01172.12793.04785.17676.05157.40201-.24363 2.65824-.09961 2.95459.49405 1.01735 3.23596.57871 3.96582.57275.17382.06482.42847-.12294.32324-.34326C23.39247 39.22025 23.77595 37.28733 23.14838 37.37372zM19.92572 37.83661c1.0293.07813 2.14258.13623 3.06592.05518.16621.71147-.07741 1.30912.09619 2.85498C18.56276 41.04844 19.97161 40.73274 19.92572 37.83661zM16.19232 37.65693c-.03662-.11279-.14111-.18359-.26514-.17139-.99268.10889-2.23389.03711-3.38037-.05029l-.12842-.01025c-.12354-.01514-.25293.08789-.26758.22217-.00732.06543.01172.12744.04785.17676.2895 2.25702-1.84036 3.9663 3.39746 3.55615.19434-.01514.35059-.02783.46973-.02832.17134.05919.34766-.05834.34766-.23535 0-.03906-.00928-.07568-.0249-.1084C16.14564 39.13437 16.51035 38.6399 16.19232 37.65693zM12.70404 37.94843c1.02979.07813 2.14355.13525 3.06641.05518.16732.71622-.07879 1.30028.09668 2.85547C11.36395 41.13427 12.74941 40.81163 12.70404 37.94843zM39.52436 9.41767c.0415-1.24121-.83936-2.28955-2.00586-2.38672-8.3252-.67627-16.77588-1.07959-25.14795-1.19727-1.20068 0-2.17432.99072-2.21631 2.25586l-.1543 4.61475c-.04251 1.26472.90281 2.36855 2.16406 2.38672 19.96082.28434 24.89076 1.61455 25.86182 1.15918C40.0909 15.28213 39.46445 11.28615 39.52436 9.41767zM37.61957 15.33759c-.01953.00684-.90234 0-2.58301-.15234-21.29306-1.92104-24.12023.0742-24.0376-2.44775.35322-2.87982-.52058-5.90381 1.38721-5.90381 3.53165.10945 11.65254.10488 25.05029 1.19385 1.27063.10662 1.07171 1.54023 1.10742 2.60938C38.60053 12.30927 38.685 14.83661 37.61957 15.33759z"></path>
</svg>
