<svg xmlns="http://www.w3.org/2000/svg" viewBox="0 0 64 64" id="cloud-management">
  <path fill="#335a89" d="M64 27.65c0 2.43-.69 4.79-2 6.84a13.503 13.503 0 0 1-11.88 7.3h-1.44c-.75 0-1.38-.59-1.42-1.34-.01-.03-.01-.07-.01-.1s0-.07.01-.1c.05-.75.67-1.34 1.42-1.34h1.44c3.97-.05 7.55-2.26 9.37-5.81.02-.04.05-.09.07-.12a9.837 9.837 0 0 0 1.58-5.34c0-5.43-4.42-9.85-9.85-9.85-.75.08-1.45-.45-1.58-1.19-.8-4.75-4.88-8.2-9.71-8.2-2.21 0-4.29.72-6.03 2.06-.49.38-1.17.4-1.67.07a9.793 9.793 0 0 0-5.46-1.66c-3.92 0-7.46 2.32-9.03 5.91-.31.69-1.09 1.02-1.8.77a9.649 9.649 0 0 0-3.29-.57c-5.44 0-9.86 4.42-9.86 9.86v3.8c0 5.67 4.61 10.29 10.29 10.29h2.17a1.43 1.43 0 1 1 0 2.86h-2.17C5.9 41.79 0 35.89 0 28.64v-3.8c0-7.01 5.7-12.72 12.72-12.72 1.02 0 2.03.12 3.03.37C17.99 8.51 22.21 6 26.83 6c2.18 0 4.3.55 6.19 1.61 2.07-1.37 4.46-2.08 6.97-2.08 5.84 0 10.83 3.91 12.29 9.45C58.83 15.49 64 20.99 64 27.65z"></path>
  <path fill="#335a89" d="M49.64 36.44a1.46 1.46 0 0 0-1.11-.35l-3.15.33c-.28-.96-.66-1.88-1.14-2.75l2.46-1.99c.32-.26.51-.63.53-1.04.03-.4-.12-.8-.41-1.09l-4.02-4.02c-.29-.29-.69-.43-1.09-.41-.4.02-.78.21-1.04.53l-1.99 2.46c-.88-.48-1.8-.86-2.75-1.14l.33-3.15c.04-.4-.1-.81-.36-1.11-.27-.31-.66-.48-1.07-.48h-5.67a1.427 1.427 0 0 0-1.42 1.59l.33 3.15c-.96.28-1.88.66-2.76 1.14l-1.99-2.46c-.26-.32-.63-.51-1.04-.53-.4-.02-.8.12-1.09.41l-4.01 4.02c-.29.29-.44.69-.42 1.09.02.41.21.78.53 1.04l2.46 1.99c-.48.88-.85 1.8-1.13 2.75l-3.15-.33c-.4-.04-.81.09-1.11.35-.31.28-.48.66-.48 1.07v5.68c0 .41.17.79.47 1.07.31.27.72.4 1.12.35l3.15-.33c.28.96.65 1.87 1.13 2.75l-2.46 1.99a1.435 1.435 0 0 0-.11 2.13l4.01 4.02c.29.29.69.44 1.09.42.41-.03.78-.22 1.04-.53l1.99-2.46c.88.48 1.8.86 2.76 1.15l-.33 3.14c-.05.41.09.81.35 1.12.28.3.66.47 1.07.47h5.67c.41 0 .8-.17 1.07-.47.27-.31.4-.71.36-1.12l-.33-3.14c.96-.29 1.87-.67 2.75-1.15l1.99 2.46a1.435 1.435 0 0 0 2.13.11l4.02-4.02c.29-.29.44-.68.41-1.09-.02-.4-.21-.78-.53-1.04l-2.46-1.99c.48-.87.86-1.79 1.14-2.75l3.15.33c.4.05.8-.09 1.11-.35.3-.28.48-.66.48-1.07v-5.68c0-.41-.18-.79-.48-1.07zm-2.39 5.16-2.82-.3c-.74-.07-1.41.43-1.56 1.16-.28 1.48-.85 2.86-1.69 4.1-.42.62-.3 1.45.28 1.92l2.21 1.78-1.77 1.77-1.78-2.2c-.47-.58-1.3-.71-1.92-.29a10.92 10.92 0 0 1-4.11 1.69c-.73.14-1.23.82-1.16 1.56l.31 2.82h-2.49l.3-2.82c.08-.74-.42-1.41-1.16-1.56-1.48-.28-2.86-.85-4.11-1.69-.62-.42-1.45-.3-1.92.29l-1.77 2.2-1.77-1.77 2.2-1.78c.57-.47.7-1.3.29-1.91-.84-1.25-1.41-2.64-1.69-4.11-.14-.74-.81-1.23-1.56-1.16l-2.82.3v-2.49l2.82.3c.75.08 1.41-.42 1.56-1.16.28-1.47.85-2.86 1.69-4.1.41-.62.29-1.45-.29-1.92l-2.2-1.78 1.77-1.77 1.77 2.21c.47.57 1.31.7 1.92.29 1.25-.85 2.63-1.42 4.11-1.7.74-.14 1.23-.82 1.16-1.56l-.3-2.82h2.49l-.31 2.82c-.08.74.43 1.41 1.16 1.56 1.48.29 2.87.85 4.11 1.7.62.41 1.45.29 1.92-.29l1.78-2.21 1.77 1.77-2.21 1.78c-.57.47-.7 1.3-.28 1.92.84 1.24 1.41 2.63 1.69 4.1.14.74.82 1.23 1.56 1.16l2.82-.3v2.49z"></path>
  <path fill="#8dbfe0" d="m47.25 39.11-2.82.3c-.74.08-1.41-.42-1.56-1.16-.28-1.47-.85-2.86-1.69-4.1-.42-.62-.3-1.45.28-1.92l2.21-1.78-1.77-1.77-1.78 2.21c-.47.57-1.3.7-1.92.29-1.24-.85-2.63-1.41-4.11-1.7-.73-.14-1.23-.82-1.16-1.56l.31-2.82h-2.49l.3 2.82c.08.74-.42 1.41-1.16 1.56-1.48.28-2.86.85-4.11 1.7-.61.41-1.45.29-1.92-.29l-1.77-2.21-1.77 1.77 2.2 1.78c.57.47.7 1.3.29 1.92-.84 1.24-1.41 2.63-1.69 4.1-.14.74-.81 1.23-1.56 1.16l-2.82-.3v2.49l2.82-.3c.75-.08 1.41.42 1.56 1.16.28 1.47.85 2.86 1.69 4.11.41.61.29 1.44-.29 1.91l-2.2 1.78 1.77 1.77 1.77-2.2c.47-.58 1.3-.71 1.92-.29 1.25.84 2.63 1.41 4.11 1.69.74.14 1.23.82 1.16 1.56l-.3 2.82h2.49l-.31-2.82c-.08-.74.43-1.41 1.16-1.56 1.48-.28 2.87-.85 4.11-1.69.62-.42 1.45-.3 1.92.29l1.78 2.2 1.77-1.77-2.21-1.78c-.57-.47-.7-1.3-.28-1.92.84-1.24 1.41-2.62 1.69-4.1.14-.73.82-1.22 1.56-1.16l2.82.3v-1.15c-.01-.03-.01-.07-.01-.1s0-.07.01-.1v-1.14zM32 48.1c-4.27 0-7.74-3.48-7.74-7.74 0-4.27 3.47-7.75 7.74-7.75s7.74 3.48 7.74 7.75c0 4.26-3.47 7.74-7.74 7.74z"></path>
  <path fill="#8dbfe0" d="M61.13 27.65c0 1.9-.54 3.74-1.58 5.34-.02.04-.05.09-.07.12-1.82 3.54-5.4 5.76-9.37 5.81v-1.41c0-.41-.18-.79-.48-1.07a1.46 1.46 0 0 0-1.11-.35l-3.15.33c-.28-.96-.66-1.88-1.14-2.75l2.46-1.99c.32-.26.51-.63.53-1.04.03-.4-.12-.8-.41-1.09l-4.02-4.02c-.29-.29-.69-.43-1.09-.41-.4.02-.78.21-1.04.53l-1.99 2.46c-.88-.48-1.8-.86-2.75-1.14l.33-3.15c.04-.4-.1-.81-.36-1.11-.27-.31-.66-.48-1.07-.48h-5.67a1.427 1.427 0 0 0-1.42 1.59l.33 3.15c-.96.28-1.88.66-2.76 1.14l-1.99-2.46c-.26-.32-.63-.51-1.04-.53-.4-.02-.8.12-1.09.41l-4.01 4.02c-.29.29-.44.69-.42 1.09.02.41.21.78.53 1.04l2.46 1.99c-.48.88-.85 1.8-1.13 2.75l-3.15-.33c-.4-.04-.81.09-1.11.35-.31.28-.48.66-.48 1.07v1.41h-.74c-5.67 0-10.29-4.61-10.29-10.29v-3.8c0-5.44 4.42-9.86 9.86-9.86 1.13 0 2.24.19 3.29.57.71.25 1.49-.09 1.8-.77a9.853 9.853 0 0 1 9.03-5.91c1.94 0 3.83.57 5.46 1.66.51.33 1.18.32 1.67-.07A9.887 9.887 0 0 1 40 8.4a9.82 9.82 0 0 1 9.71 8.21c.12.75.82 1.27 1.58 1.19 5.42.01 9.84 4.43 9.84 9.85z"></path>
  <path fill="#335a89" d="M32 32.61c-4.27 0-7.74 3.48-7.74 7.75 0 4.26 3.47 7.74 7.74 7.74s7.74-3.48 7.74-7.74c0-4.27-3.47-7.75-7.74-7.75zm0 12.62c-2.68 0-4.87-2.19-4.87-4.87 0-2.69 2.19-4.88 4.87-4.88a4.876 4.876 0 0 1 0 9.75z"></path>
</svg>
