<svg xmlns="http://www.w3.org/2000/svg" xmlns:xlink="http://www.w3.org/1999/xlink" version="1.1" width="256" height="256" viewBox="0 0 256 256" xml:space="preserve">

<defs>
</defs>
<g style="stroke: none; stroke-width: 0; stroke-dasharray: none; stroke-linecap: butt; stroke-linejoin: miter; stroke-miterlimit: 10; fill: none; fill-rule: nonzero; opacity: 1;" transform="translate(1.4065934065934016 1.4065934065934016) scale(2.81 2.81)" >
	<path d="M 89.628 43.838 l -6.47 -9.063 l 1.071 -11.083 c 0.083 -0.85 -0.384 -1.659 -1.161 -2.013 l -10.135 -4.614 L 68.32 6.932 c -0.354 -0.778 -1.176 -1.245 -2.013 -1.162 L 55.225 6.841 l -9.063 -6.469 c -0.695 -0.496 -1.629 -0.496 -2.324 0 l -9.063 6.469 L 23.692 5.77 c -0.839 -0.078 -1.658 0.385 -2.013 1.162 l -4.614 10.134 L 6.932 21.68 c -0.777 0.354 -1.244 1.163 -1.162 2.013 l 1.071 11.083 l -6.469 9.063 c -0.496 0.695 -0.496 1.629 0 2.324 l 6.469 9.063 L 5.77 66.308 c -0.082 0.851 0.385 1.659 1.162 2.013 l 10.134 4.613 l 4.614 10.135 c 0.354 0.777 1.168 1.25 2.013 1.161 l 11.083 -1.071 l 9.063 6.47 C 44.186 89.876 44.593 90 45 90 s 0.814 -0.124 1.162 -0.372 l 9.063 -6.47 l 11.083 1.071 c 0.842 0.094 1.658 -0.384 2.013 -1.161 l 4.613 -10.135 l 10.135 -4.613 c 0.777 -0.354 1.244 -1.162 1.161 -2.013 l -1.071 -11.083 l 6.47 -9.063 C 90.124 45.467 90.124 44.533 89.628 43.838 z" style="stroke: none; stroke-width: 1; stroke-dasharray: none; stroke-linecap: butt; stroke-linejoin: miter; stroke-miterlimit: 10; fill: rgb(244,189,52); fill-rule: nonzero; opacity: 1;" transform=" matrix(1 0 0 1 0 0) " stroke-linecap="round" />
	<path d="M 89.628 43.838 l -6.47 -9.063 l 1.071 -11.083 c 0.083 -0.85 -0.384 -1.659 -1.161 -2.013 l -10.135 -4.614 L 68.32 6.932 c -0.354 -0.778 -1.176 -1.245 -2.013 -1.162 L 55.225 6.841 L 47.97 1.662 C 59.706 12.401 67.069 27.839 67.069 45 c 0 17.161 -7.363 32.599 -19.099 43.337 l 7.255 -5.179 l 11.083 1.071 c 0.842 0.094 1.658 -0.384 2.013 -1.161 l 4.613 -10.135 l 10.135 -4.613 c 0.777 -0.354 1.244 -1.162 1.161 -2.013 l -1.071 -11.083 l 6.47 -9.063 C 90.124 45.467 90.124 44.533 89.628 43.838 z" style="stroke: none; stroke-width: 1; stroke-dasharray: none; stroke-linecap: butt; stroke-linejoin: miter; stroke-miterlimit: 10; fill: rgb(229,176,45); fill-rule: nonzero; opacity: 1;" transform=" matrix(1 0 0 1 0 0) " stroke-linecap="round" />
	<path d="M 18.102 54.856 c -1.104 0 -2 -0.896 -2 -2 V 37.144 c 0 -1.104 0.896 -2 2 -2 h 7.997 c 1.104 0 2 0.896 2 2 s -0.896 2 -2 2 h -5.997 v 13.712 C 20.102 53.961 19.207 54.856 18.102 54.856 z" style="stroke: none; stroke-width: 1; stroke-dasharray: none; stroke-linecap: butt; stroke-linejoin: miter; stroke-miterlimit: 10; fill: rgb(170,0,0); fill-rule: nonzero; opacity: 1;" transform=" matrix(1 0 0 1 0 0) " stroke-linecap="round" />
	<path d="M 22.101 47 h -3.462 c -1.104 0 -2 -0.896 -2 -2 s 0.896 -2 2 -2 h 3.462 c 1.104 0 2 0.896 2 2 S 23.205 47 22.101 47 z" style="stroke: none; stroke-width: 1; stroke-dasharray: none; stroke-linecap: butt; stroke-linejoin: miter; stroke-miterlimit: 10; fill: rgb(170,0,0); fill-rule: nonzero; opacity: 1;" transform=" matrix(1 0 0 1 0 0) " stroke-linecap="round" />
	<path d="M 33.24 54.856 c -1.104 0 -2 -0.896 -2 -2 V 37.144 c 0 -1.104 0.896 -2 2 -2 h 6.186 c 2.101 0 3.811 1.709 3.811 3.81 v 4.236 c 0 2.101 -1.709 3.81 -3.811 3.81 H 35.24 v 5.856 C 35.24 53.961 34.345 54.856 33.24 54.856 z M 35.24 43 h 3.997 v -3.856 H 35.24 V 43 z" style="stroke: none; stroke-width: 1; stroke-dasharray: none; stroke-linecap: butt; stroke-linejoin: miter; stroke-miterlimit: 10; fill: rgb(170,0,0); fill-rule: nonzero; opacity: 1;" transform=" matrix(1 0 0 1 0 0) " stroke-linecap="round" />
	<path d="M 41.238 54.856 c -0.729 0 -1.431 -0.399 -1.784 -1.093 l -3.999 -7.856 c -0.501 -0.984 -0.109 -2.188 0.875 -2.689 c 0.983 -0.501 2.188 -0.109 2.689 0.875 l 3.999 7.856 c 0.501 0.984 0.109 2.188 -0.875 2.689 C 41.854 54.787 41.543 54.856 41.238 54.856 z" style="stroke: none; stroke-width: 1; stroke-dasharray: none; stroke-linecap: butt; stroke-linejoin: miter; stroke-miterlimit: 10; fill: rgb(170,0,0); fill-rule: nonzero; opacity: 1;" transform=" matrix(1 0 0 1 0 0) " stroke-linecap="round" />
	<path d="M 57.067 54.856 H 49.07 c -1.104 0 -2 -0.896 -2 -2 V 37.144 c 0 -1.104 0.896 -2 2 -2 h 7.997 c 1.104 0 2 0.896 2 2 s -0.896 2 -2 2 H 51.07 v 11.712 h 5.997 c 1.104 0 2 0.896 2 2 S 58.172 54.856 57.067 54.856 z" style="stroke: none; stroke-width: 1; stroke-dasharray: none; stroke-linecap: butt; stroke-linejoin: miter; stroke-miterlimit: 10; fill: rgb(170,0,0); fill-rule: nonzero; opacity: 1;" transform=" matrix(1 0 0 1 0 0) " stroke-linecap="round" />
	<path d="M 53.069 47 h -3.463 c -1.104 0 -2 -0.896 -2 -2 s 0.896 -2 2 -2 h 3.463 c 1.104 0 2 0.896 2 2 S 54.174 47 53.069 47 z" style="stroke: none; stroke-width: 1; stroke-dasharray: none; stroke-linecap: butt; stroke-linejoin: miter; stroke-miterlimit: 10; fill: rgb(170,0,0); fill-rule: nonzero; opacity: 1;" transform=" matrix(1 0 0 1 0 0) " stroke-linecap="round" />
	<path d="M 72.897 54.856 h -7.996 c -1.104 0 -2 -0.896 -2 -2 V 37.144 c 0 -1.104 0.896 -2 2 -2 h 7.996 c 1.104 0 2 0.896 2 2 s -0.896 2 -2 2 h -5.996 v 11.712 h 5.996 c 1.104 0 2 0.896 2 2 S 74.002 54.856 72.897 54.856 z" style="stroke: none; stroke-width: 1; stroke-dasharray: none; stroke-linecap: butt; stroke-linejoin: miter; stroke-miterlimit: 10; fill: rgb(170,0,0); fill-rule: nonzero; opacity: 1;" transform=" matrix(1 0 0 1 0 0) " stroke-linecap="round" />
	<path d="M 68.899 47 h -3.462 c -1.104 0 -2 -0.896 -2 -2 s 0.896 -2 2 -2 h 3.462 c 1.104 0 2 0.896 2 2 S 70.004 47 68.899 47 z" style="stroke: none; stroke-width: 1; stroke-dasharray: none; stroke-linecap: butt; stroke-linejoin: miter; stroke-miterlimit: 10; fill: rgb(170,0,0); fill-rule: nonzero; opacity: 1;" transform=" matrix(1 0 0 1 0 0) " stroke-linecap="round" />
</g>
</svg>