<?xml version="1.0" encoding="iso-8859-1"?>
<!-- Uploaded to: SVG Repo, www.svgrepo.com, Generator: SVG Repo Mixer Tools -->
<svg height="800px" width="800px" version="1.1" id="Layer_1" xmlns="http://www.w3.org/2000/svg" xmlns:xlink="http://www.w3.org/1999/xlink" 
	 viewBox="0 0 508.042 508.042" xml:space="preserve">
<path style="fill:#56ACE0;" d="M265.333,32.1c-11.6-1.6-34.9-2.8-50.1-3.4V345c-0.6,7.9-5.8,14.8-16.3,13.9
	c-15.6-2.6-32.6-1.1-50.7,4.2c-44.7,13.7-74.6,50.7-65.4,80.9c7.7,25,45.7,47.4,99.5,30.5c39.4-12,67.6-41.5,67.1-70.1l0.2-288.1
	c0-6.8,4.8-12.6,11.5-13.9c49-6.7,106.7,13.9,162.9,60.8C415.734,119.8,383.734,48.6,265.333,32.1z"/>
<path style="fill:#194F82;" d="M269.234,4.2c-19.5-2.7-65.7-4.1-67.6-4.2c-7.6,0.2-14.1,4.9-14.6,14.1v315.5
	c-15.6-0.4-31.4,1.8-47,6.5c-60.3,18.5-98,70.6-84.1,116.2c12.9,44.3,74.7,68,134.7,49.3c52-15.9,87.8-56.1,87.1-97.4l0.2-274.7
	c23.6,0.1,84.9,8.1,152.7,78.7c3.8,4,9.7,5.4,14.9,3.5c5.2-1.9,8.9-6.6,9.3-12.2C455.034,197.9,465.734,31.5,269.234,4.2z
	 M261.134,102.4c-6.7,1.3-11.5,7.1-11.5,13.9l-0.2,288.1c0.5,28.6-27.7,58.1-67.1,70.1c-53.7,16.9-91.8-5.5-99.5-30.5
	c-9.2-30.2,20.7-67.3,65.4-80.9c18.1-5.2,35.1-6.8,50.7-4.2c10.5,0.8,15.7-6,16.3-13.9V28.7c15.2,0.6,38.5,1.8,50.1,3.4
	c118.4,16.5,150.4,87.7,158.7,131.1C367.833,116.3,310.234,95.7,261.134,102.4z"/>
</svg>