<?xml version="1.0" encoding="iso-8859-1"?>
<!-- Uploaded to: SVG Repo, www.svgrepo.com, Generator: SVG Repo Mixer Tools -->
<svg version="1.1" id="Layer_1" xmlns="http://www.w3.org/2000/svg" xmlns:xlink="http://www.w3.org/1999/xlink" 
	 viewBox="0 0 480 480" xml:space="preserve">
<g>
	<polygon style="fill:#8E6725;" points="136,280 136,312 104,312 104,280 72,280 72,312 40,312 40,280 8,280 8,472 136,472 160,280 
			"/>
	<polygon style="fill:#8E6725;" points="344,280 344,312 376,312 376,280 408,280 408,312 440,312 440,280 472,280 472,472 344,472 
		320,280 	"/>
</g>
<g>
	<polygon style="fill:#BD8931;" points="344,472 136,472 168,216 312,216 	"/>
	<polygon style="fill:#BD8931;" points="320,120 320,152 288,152 288,120 256,120 256,152 224,152 224,120 192,120 192,152 160,152 
		160,120 128,120 144,216 336,216 352,120 	"/>
</g>
<path style="fill:#FCB641;" d="M240,72h-32V24c0-8.84,7.16-16,16-16h16V72z"/>
<rect x="240" y="8" style="fill:#E65039;" width="32" height="64"/>
<path style="fill:#FCB641;" d="M288,72h-16V8h32v48C304,64.84,296.84,72,288,72z"/>
<path style="fill:#8E6725;" d="M240,352L240,352c-22.088,0-40,17.912-40,40v80h80v-80C280,369.912,262.088,352,240,352z"/>
<path d="M96,360c0-4.416-3.584-8-8-8H72c-4.416,0-8,3.584-8,8s3.584,8,8,8h16C92.416,368,96,364.416,96,360z"/>
<path d="M64,392H48c-4.416,0-8,3.584-8,8s3.584,8,8,8h16c4.416,0,8-3.584,8-8S68.416,392,64,392z"/>
<path d="M104,424H88c-4.416,0-8,3.584-8,8s3.584,8,8,8h16c4.416,0,8-3.584,8-8S108.416,424,104,424z"/>
<path d="M472,272h-32c-4.416,0-8,3.584-8,8v24h-16v-24c0-4.416-3.584-8-8-8h-32c-4.416,0-8,3.584-8,8v24h-16v-24
	c0-4.416-3.584-8-8-8h-16.936l-6-48H336c3.912,0,7.248-2.832,7.888-6.68l16-96c0.384-2.32-0.264-4.688-1.784-6.488
	S354.352,112,352,112h-32c-4.416,0-8,3.584-8,8v24h-16v-24c0-4.416-3.584-8-8-8h-32c-4.416,0-8,3.584-8,8v24h-16v-24
	c0-4.416-3.584-8-8-8h-8V80h24h32h16c13.232,0,24-10.768,24-24V8c0-4.416-3.584-8-8-8h-32h-32h-16c-13.232,0-24,10.768-24,24v48v40
	h-8c-4.416,0-8,3.584-8,8v24h-16v-24c0-4.416-3.584-8-8-8h-32c-2.352,0-4.584,1.032-6.104,2.832s-2.168,4.168-1.784,6.488l16,96
	c0.64,3.848,3.976,6.68,7.888,6.68h14.936l-6,48H136c-4.416,0-8,3.584-8,8v24h-16v-24c0-4.416-3.584-8-8-8H72c-4.416,0-8,3.584-8,8
	v24H48v-24c0-4.416-3.584-8-8-8H8c-4.416,0-8,3.584-8,8v192c0,4.416,3.584,8,8,8h464c4.416,0,8-3.584,8-8V280
	C480,275.584,476.416,272,472,272z M296,56c0,4.408-3.592,8-8,8h-8V16h16V56z M264,64h-16V16h16V64z M216,24c0-4.408,3.592-8,8-8h8
	v48h-16V24z M137.448,128H152v24c0,4.416,3.584,8,8,8h32c4.416,0,8-3.584,8-8v-24h16v24c0,4.416,3.584,8,8,8h32c4.416,0,8-3.584,8-8
	v-24h16v24c0,4.416,3.584,8,8,8h32c4.416,0,8-3.584,8-8v-24h14.552l-13.336,80H312H168h-17.224L137.448,128z M16,368h24
	c4.416,0,8-3.584,8-8s-3.584-8-8-8H16v-64h16v24c0,4.416,3.584,8,8,8h32c4.416,0,8-3.584,8-8v-24h16v24c0,4.416,3.584,8,8,8h32
	c4.416,0,8-3.584,8-8v-24h6.936l-8,64H120c-4.416,0-8,3.584-8,8s3.584,8,8,8h20.936l-12,96H16V368z M208,464v-72
	c0-17.648,14.352-32,32-32s32,14.352,32,32v72H208z M288,464v-72c0-26.472-21.528-48-48-48s-48,21.528-48,48v72h-46.936l30-240
	h129.872l30,240H288z M351.064,464l-12-96H360c4.416,0,8-3.584,8-8s-3.584-8-8-8h-22.936l-8-64H336v24c0,4.416,3.584,8,8,8h32
	c4.416,0,8-3.584,8-8v-24h16v24c0,4.416,3.584,8,8,8h32c4.416,0,8-3.584,8-8v-24h16v64h-24c-4.416,0-8,3.584-8,8s3.584,8,8,8h24v96
	H351.064z"/>
<path d="M392,368h16c4.416,0,8-3.584,8-8s-3.584-8-8-8h-16c-4.416,0-8,3.584-8,8S387.584,368,392,368z"/>
<path d="M432,392h-16c-4.416,0-8,3.584-8,8s3.584,8,8,8h16c4.416,0,8-3.584,8-8S436.416,392,432,392z"/>
<path d="M392,424h-16c-4.416,0-8,3.584-8,8s3.584,8,8,8h16c4.416,0,8-3.584,8-8S396.416,424,392,424z"/>
<path d="M248,256h-16c-4.416,0-8,3.584-8,8s3.584,8,8,8h16c4.416,0,8-3.584,8-8S252.416,256,248,256z"/>
<path d="M208,288h-16c-4.416,0-8,3.584-8,8s3.584,8,8,8h16c4.416,0,8-3.584,8-8S212.416,288,208,288z"/>
<path d="M288,288h-16c-4.416,0-8,3.584-8,8s3.584,8,8,8h16c4.416,0,8-3.584,8-8S292.416,288,288,288z"/>
<path d="M8,32h32c4.416,0,8-3.584,8-8s-3.584-8-8-8H8c-4.416,0-8,3.584-8,8S3.584,32,8,32z"/>
<path d="M72,32h16c4.416,0,8-3.584,8-8s-3.584-8-8-8H72c-4.416,0-8,3.584-8,8S67.584,32,72,32z"/>
<path d="M392,88h32c4.416,0,8-3.584,8-8s-3.584-8-8-8h-32c-4.416,0-8,3.584-8,8S387.584,88,392,88z"/>
<path d="M456,88h16c4.416,0,8-3.584,8-8s-3.584-8-8-8h-16c-4.416,0-8,3.584-8,8S451.584,88,456,88z"/>
</svg>