<?xml version="1.0" encoding="iso-8859-1"?>
<!-- Uploaded to: SVG Repo, www.svgrepo.com, Generator: SVG Repo Mixer Tools -->
<svg height="800px" width="800px" version="1.1" id="Layer_1" xmlns="http://www.w3.org/2000/svg" xmlns:xlink="http://www.w3.org/1999/xlink" 
	 viewBox="0 0 512 512" xml:space="preserve">
<circle style="fill:#22BFBF;" cx="256" cy="256" r="256"/>
<path style="fill:#006C70;" d="M510.878,279.924l-141.35-141.879l-4.48,112.552l-65.441-65.786l-6.742,12.953l-45.914-45.915
	l-66.084,168.222l-28.875,68.453l123.294,122.754C399.743,502.01,499.4,403.754,510.878,279.924z"/>
<path style="fill:#FDBE6D;" d="M259.225,167.491c-0.795,0-1.583,0.028-2.37,0.06c-5.727-16.279-21.23-27.951-39.467-27.951
	c-15.155,0-28.425,8.058-35.766,20.121c-1.957-0.434-3.984-0.683-6.07-0.683c-13.384,0-24.554,9.431-27.257,22.007
	c-0.212-0.005-0.421-0.033-0.634-0.033c-15.117,0-27.395,12.035-27.848,27.041h193.077
	C306.262,184.648,284.755,167.491,259.225,167.491z"/>
<path style="fill:#FE9610;" d="M259.225,167.49c-0.795,0-1.583,0.028-2.37,0.06c-5.727-16.279-21.23-27.951-39.467-27.951
	c-0.734,0-1.462,0.034-2.186,0.072v68.382h97.687C306.262,184.648,284.755,167.49,259.225,167.49z"/>
<path style="fill:#FFD300;" d="M268.593,393.419H164.107c-8.578,0-15.901-6.203-17.311-14.665l-24.398-146.396h187.906
	l-24.4,146.398C284.493,387.217,277.171,393.419,268.593,393.419z"/>
<path style="fill:#F4A200;" d="M215.202,232.358v161.063h53.391c8.58,0,15.901-6.203,17.311-14.665l24.398-146.398H215.202z"/>
<path style="fill:#D83E20;" d="M311.453,256H121.247c-2.46,0-4.453-1.995-4.453-4.453v-47.983c0-2.46,1.995-4.453,4.453-4.453
	h190.205c2.46,0,4.453,1.995,4.453,4.453v47.983C315.906,254.005,313.911,256,311.453,256z"/>
<path style="fill:#C1321F;" d="M311.453,199.111h-96.251V256h96.251c2.46,0,4.453-1.993,4.453-4.453v-47.983
	C315.906,201.104,313.913,199.111,311.453,199.111z"/>
<path style="fill:#FF9811;" d="M216.35,334.869c-58.459,0-106.02-47.561-106.02-106.02h6.896c0,54.658,44.466,99.125,99.125,99.125
	s99.125-44.466,99.125-99.125h6.896C322.37,287.308,274.81,334.869,216.35,334.869z"/>
<path style="fill:#FF5023;" d="M315.475,228.848c0,54.658-44.466,99.125-99.125,99.125c-0.384,0-0.764-0.024-1.148-0.029v6.896
	c0.384,0.003,0.764,0.029,1.148,0.029c58.459,0,106.02-47.561,106.02-106.02H315.475z"/>
<path style="fill:#D83E20;" d="M405.549,388.741h-85.333v-91.224c0-12.457,10.099-22.554,22.554-22.554h40.224
	c12.457,0,22.554,10.099,22.554,22.554v91.224H405.549z"/>
<path style="fill:#C1321F;" d="M405.549,297.517c0-12.457-10.099-22.554-22.554-22.554h-20.687v113.778h43.241V297.517z"/>
<path style="fill:#FFD300;" d="M362.882,319.785L362.882,319.785c-5.237,0-9.481-4.244-9.481-9.482V144.808
	c0-5.237,4.244-9.481,9.481-9.481l0,0c5.237,0,9.481,4.244,9.481,9.481v165.495C372.364,315.54,368.119,319.785,362.882,319.785z"/>
<path style="fill:#F4A200;" d="M362.882,135.327c-0.193,0-0.383,0.017-0.574,0.029v184.399c0.191,0.012,0.381,0.029,0.574,0.029
	c5.237,0,9.481-4.244,9.481-9.482V144.808C372.364,139.571,368.119,135.327,362.882,135.327z"/>
</svg>