<?xml version="1.0" encoding="iso-8859-1"?>
<!-- Uploaded to: SVG Repo, www.svgrepo.com, Generator: SVG Repo Mixer Tools -->
<svg height="800px" width="800px" version="1.1" id="Layer_1" xmlns="http://www.w3.org/2000/svg" xmlns:xlink="http://www.w3.org/1999/xlink" 
	 viewBox="0 0 512 512" xml:space="preserve">
<g>
	<path style="fill:#2BA5F7;" d="M88.531,36.851c14.824,0,26.772,12.943,26.583,28.76l-2.851,230.73l-0.248,19.627H65.036
		l-0.237-19.627l-2.851-230.73C61.747,49.793,73.708,36.851,88.531,36.851z"/>
	<path style="fill:#2BA5F7;" d="M168.186,347.768v127.379H8.876V347.768c0-28.393,21.567-51.427,48.174-51.427h7.749l0.237,19.627
		h46.979l0.248-19.627h7.749C146.619,296.341,168.186,319.375,168.186,347.768z"/>
</g>
<path style="fill:#2197D8;" d="M136.076,377.294v97.852H40.988v-97.852c0-16.947,12.873-30.695,28.754-30.695h37.581
	C123.203,346.599,136.076,360.347,136.076,377.294z"/>
<polygon style="fill:#F95428;" points="291.59,248.368 218.383,248.368 188.605,248.368 204.068,154.611 229.042,154.611 
	458.601,154.611 487.656,154.611 503.131,248.368 473.353,248.368 "/>
<polygon style="fill:#D33924;" points="229.042,154.611 204.068,154.611 188.605,248.368 218.383,248.368 250.766,248.368 
	266.229,154.611 "/>
<polygon style="fill:#F95428;" points="291.59,248.368 218.383,248.368 229.373,470.296 462.351,470.296 466.338,389.884 
	473.353,248.368 "/>
<polygon style="fill:#D33924;" points="291.59,248.368 218.383,248.368 229.373,470.296 299.645,470.296 "/>
<path style="fill:#F7B239;" d="M458.601,154.611H229.042c26.926-35.894,68.345-58.88,114.768-58.88
	C390.256,95.731,431.674,118.718,458.601,154.611z"/>
<path style="fill:#E09B2D;" d="M383.985,101.677c-12.771-3.864-26.245-5.946-40.175-5.946c-46.423,0-87.841,22.987-114.768,58.88
	h80.335C328.227,129.483,354.185,110.695,383.985,101.677z"/>
<g>
	<path style="fill:#FFFFFF;" d="M467.986,231.977c-4.356,0-8.157-3.21-8.776-7.646l-5.435-38.916
		c-0.678-4.854,2.707-9.338,7.56-10.015c4.855-0.681,9.338,2.707,10.014,7.56l5.435,38.916c0.678,4.854-2.707,9.338-7.56,10.015
		C468.808,231.949,468.394,231.977,467.986,231.977z"/>
	<path style="fill:#FFFFFF;" d="M434.212,449.593c-0.148,0-0.297-0.004-0.447-0.011c-4.894-0.243-8.665-4.407-8.422-9.301
		l6.482-130.74c0.242-4.894,4.428-8.659,9.301-8.422c4.894,0.243,8.665,4.407,8.422,9.301l-6.481,130.739
		C442.832,445.904,438.911,449.593,434.212,449.593z"/>
	<path style="fill:#FFFFFF;" d="M91.268,231.817c-0.038,0-0.075,0-0.112,0c-4.9-0.06-8.823-4.082-8.763-8.982l1.944-157.335
		c0.06-4.901,4.097-8.846,8.982-8.763c4.9,0.06,8.823,4.082,8.763,8.982l-1.944,157.335
		C100.078,227.917,96.117,231.817,91.268,231.817z"/>
	<circle style="fill:#FFFFFF;" cx="442.271" cy="277.945" r="8.873"/>
</g>
<g>
	<path style="fill:#333333;" d="M511.882,246.927l-15.468-93.766c-0.707-4.285-4.412-7.428-8.755-7.428h-25.076
		c-29.71-37.183-72.72-58.407-118.775-58.407c-46.037,0-89.034,21.224-118.744,58.407h-20.992c-4.343,0-8.047,3.143-8.755,7.428
		l-15.468,93.766c-0.424,2.571,0.303,5.198,1.989,7.185c1.686,1.986,4.16,3.132,6.766,3.132h21.33l10.584,213.492
		c0.234,4.724,4.132,8.434,8.862,8.434h232.973c4.73,0,8.628-3.71,8.862-8.434l3.718-75.016c9.668-4.833,18.585-12.497,24.82-24.439
		c11.141-21.335,9.189-47.641,5.591-65.954c-3.242-16.493-9.121-33.342-16.657-48.084h14.441c2.606,0,5.079-1.145,6.766-3.132
		C511.578,252.125,512.305,249.498,511.882,246.927z M343.807,105.07c35.799,0,69.564,14.622,95.097,40.661H248.741
		C274.271,119.694,308.025,105.07,343.807,105.07z M453.908,461.425H237.822L227.7,257.244h57.163
		c4.315,14.696,10.164,31.234,18.01,47.801c30.524,64.451,76.966,98.371,134.529,98.369c1.57,0,3.15-0.025,4.736-0.076
		c4.617-0.147,9.617-0.621,14.729-1.616L453.908,461.425z M457.78,383.31c-4.873,1.324-10.267,2.102-16.207,2.293
		c-52.796,1.661-93.988-27.853-122.487-87.782c-6.58-13.837-11.7-27.797-15.648-40.576h160.591L457.78,383.31z M484.022,363.067
		c-2.114,4.047-4.794,7.537-7.991,10.504l4.504-90.863C490.961,310.656,494.614,342.781,484.022,363.067z M298.456,239.498
		c-5.286-20.848-7.057-35.504-7.086-35.765c-0.563-4.867-4.957-8.359-9.835-7.794c-4.868,0.563-8.357,4.966-7.794,9.835
		c0.122,1.049,1.719,14.387,6.381,33.724h-61.746H199.06l12.542-76.02h268.527l12.542,76.02L298.456,239.498L298.456,239.498z"/>
	<path style="fill:#333333;" d="M121.241,287.503l2.745-221.778c0.127-10.252-3.83-20.21-10.854-27.323
		c-6.638-6.721-15.376-10.423-24.603-10.423s-17.966,3.701-24.603,10.423c-7.025,7.112-10.981,17.071-10.854,27.323l2.745,221.778
		C24.927,288.201,0,314.955,0,347.764v127.382c0,4.9,3.973,8.873,8.873,8.873h159.313c4.9,0,8.873-3.973,8.873-8.873V347.764
		C177.059,314.954,152.129,288.2,121.241,287.503z M76.55,50.873c3.278-3.32,7.532-5.147,11.978-5.147s8.7,1.828,11.978,5.146
		c3.714,3.76,5.804,9.093,5.735,14.633l-2.99,241.59H73.805l-2.99-241.59C70.746,59.965,72.837,54.633,76.55,50.873z
		 M159.313,466.273H17.746V347.764c0-23.093,17.084-41.934,38.288-42.52l0.134,10.836c0.06,4.856,4.015,8.763,8.873,8.763h46.974
		c4.858,0,8.813-3.906,8.873-8.763l0.134-10.836c21.205,0.584,38.292,19.427,38.292,42.52V466.273z"/>
</g>
</svg>