<?xml version="1.0" encoding="iso-8859-1"?>
<!-- Uploaded to: SVG Repo, www.svgrepo.com, Generator: SVG Repo Mixer Tools -->
<svg height="800px" width="800px" version="1.1" id="Layer_1" xmlns="http://www.w3.org/2000/svg" xmlns:xlink="http://www.w3.org/1999/xlink" 
	 viewBox="0 0 512 512" xml:space="preserve">
<path style="fill:#FEE856;" d="M256.019,512c-0.563,0-1.122-0.003-1.687-0.011c-65.542-0.894-118.535-54.969-118.132-120.54
	c0.227-36.981,17.398-71.445,46.36-93.909V73.439C182.561,32.945,215.505,0,256,0c40.494,0,73.439,32.945,73.439,73.439v224.1
	c29.194,22.629,46.364,57.371,46.364,94.659C375.802,458.479,322.173,512,256.019,512z"/>
<path style="fill:#E65C7B;" d="M272.696,331.958V82.852c0-9.22-7.475-16.696-16.696-16.696c-9.22,0-16.696,7.475-16.696,16.696
	V331.96c-26.39,7.324-45.825,31.547-45.825,60.239c0,34.474,28.046,62.521,62.521,62.521s62.521-28.046,62.521-62.521
	C318.521,363.507,299.087,339.283,272.696,331.958z"/>
<path style="fill:#FFCE3E;" d="M329.438,297.539v-224.1C329.438,32.945,296.494,0,256,0l0,0v512c0.007,0,0.012,0,0.019,0
	c66.155,0,119.784-53.521,119.784-119.802C375.802,354.909,358.632,320.167,329.438,297.539z"/>
<path style="fill:#834496;" d="M272.696,331.958V82.852c0-9.22-7.475-16.696-16.696-16.696l0,0v388.563l0,0
	c34.474,0,62.521-28.046,62.521-62.521C318.521,363.507,299.086,339.283,272.696,331.958z"/>
</svg>