<svg xmlns="http://www.w3.org/2000/svg" xmlns:xlink="http://www.w3.org/1999/xlink" version="1.1" width="256" height="256" viewBox="0 0 256 256" xml:space="preserve">

<defs>
</defs>
<g style="stroke: none; stroke-width: 0; stroke-dasharray: none; stroke-linecap: butt; stroke-linejoin: miter; stroke-miterlimit: 10; fill: none; fill-rule: nonzero; opacity: 1;" transform="translate(1.4065934065934016 1.4065934065934016) scale(2.81 2.81)" >
	<circle cx="55.256" cy="44.996" r="7.506" style="stroke: none; stroke-width: 1; stroke-dasharray: none; stroke-linecap: butt; stroke-linejoin: miter; stroke-miterlimit: 10; fill: rgb(252,181,68); fill-rule: nonzero; opacity: 1;" transform="  matrix(1 0 0 1 0 0) "/>
	<circle cx="55.256" cy="8.846" r="7.506" style="stroke: none; stroke-width: 1; stroke-dasharray: none; stroke-linecap: butt; stroke-linejoin: miter; stroke-miterlimit: 10; fill: rgb(248,72,97); fill-rule: nonzero; opacity: 1;" transform="  matrix(1 0 0 1 0 0) "/>
	<circle cx="55.256" cy="81.156" r="7.506" style="stroke: none; stroke-width: 1; stroke-dasharray: none; stroke-linecap: butt; stroke-linejoin: miter; stroke-miterlimit: 10; fill: rgb(17,105,211); fill-rule: nonzero; opacity: 1;" transform="  matrix(1 0 0 1 0 0) "/>
	<path d="M 55.253 53.506 c -4.69 0 -8.506 -3.815 -8.506 -8.506 s 3.815 -8.506 8.506 -8.506 S 63.759 40.31 63.759 45 S 59.943 53.506 55.253 53.506 z M 55.253 38.494 c -3.587 0 -6.506 2.919 -6.506 6.506 c 0 3.587 2.919 6.506 6.506 6.506 s 6.506 -2.919 6.506 -6.506 C 61.759 41.413 58.84 38.494 55.253 38.494 z" style="stroke: none; stroke-width: 1; stroke-dasharray: none; stroke-linecap: butt; stroke-linejoin: miter; stroke-miterlimit: 10; fill: rgb(0,0,0); fill-rule: nonzero; opacity: 1;" transform=" matrix(1 0 0 1 0 0) " stroke-linecap="round" />
	<path d="M 55.253 17.35 c -4.69 0 -8.506 -3.816 -8.506 -8.506 c 0 -4.69 3.815 -8.506 8.506 -8.506 s 8.506 3.816 8.506 8.506 C 63.759 13.534 59.943 17.35 55.253 17.35 z M 55.253 2.337 c -3.587 0 -6.506 2.918 -6.506 6.506 s 2.919 6.506 6.506 6.506 s 6.506 -2.919 6.506 -6.506 S 58.84 2.337 55.253 2.337 z" style="stroke: none; stroke-width: 1; stroke-dasharray: none; stroke-linecap: butt; stroke-linejoin: miter; stroke-miterlimit: 10; fill: rgb(0,0,0); fill-rule: nonzero; opacity: 1;" transform=" matrix(1 0 0 1 0 0) " stroke-linecap="round" />
	<path d="M 55.253 89.663 c -4.69 0 -8.506 -3.816 -8.506 -8.507 s 3.815 -8.506 8.506 -8.506 s 8.506 3.815 8.506 8.506 S 59.943 89.663 55.253 89.663 z M 55.253 74.65 c -3.587 0 -6.506 2.919 -6.506 6.506 c 0 3.588 2.919 6.507 6.506 6.507 s 6.506 -2.919 6.506 -6.507 C 61.759 77.569 58.84 74.65 55.253 74.65 z" style="stroke: none; stroke-width: 1; stroke-dasharray: none; stroke-linecap: butt; stroke-linejoin: miter; stroke-miterlimit: 10; fill: rgb(0,0,0); fill-rule: nonzero; opacity: 1;" transform=" matrix(1 0 0 1 0 0) " stroke-linecap="round" />
	<path d="M 55.253 74.65 c -0.553 0 -1 -0.447 -1 -1 V 52.506 c 0 -0.553 0.447 -1 1 -1 s 1 0.447 1 1 V 73.65 C 56.253 74.203 55.806 74.65 55.253 74.65 z" style="stroke: none; stroke-width: 1; stroke-dasharray: none; stroke-linecap: butt; stroke-linejoin: miter; stroke-miterlimit: 10; fill: rgb(0,0,0); fill-rule: nonzero; opacity: 1;" transform=" matrix(1 0 0 1 0 0) " stroke-linecap="round" />
	<path d="M 55.253 38.494 c -0.553 0 -1 -0.448 -1 -1 V 16.35 c 0 -0.552 0.447 -1 1 -1 s 1 0.448 1 1 v 21.144 C 56.253 38.046 55.806 38.494 55.253 38.494 z" style="stroke: none; stroke-width: 1; stroke-dasharray: none; stroke-linecap: butt; stroke-linejoin: miter; stroke-miterlimit: 10; fill: rgb(0,0,0); fill-rule: nonzero; opacity: 1;" transform=" matrix(1 0 0 1 0 0) " stroke-linecap="round" />
	<circle cx="20.579" cy="44.999" r="19.579" style="stroke: none; stroke-width: 1; stroke-dasharray: none; stroke-linecap: butt; stroke-linejoin: miter; stroke-miterlimit: 10; fill: rgb(56,214,210); fill-rule: nonzero; opacity: 1;" transform="  matrix(1 0 0 1 0 0) "/>
	<path d="M 20.58 65.579 C 9.232 65.579 0 56.348 0 45 s 9.232 -20.58 20.58 -20.58 c 11.347 0 20.579 9.232 20.579 20.58 S 31.927 65.579 20.58 65.579 z M 20.58 26.42 C 10.335 26.42 2 34.755 2 45 c 0 10.244 8.335 18.579 18.58 18.579 S 39.159 55.244 39.159 45 C 39.159 34.755 30.824 26.42 20.58 26.42 z" style="stroke: none; stroke-width: 1; stroke-dasharray: none; stroke-linecap: butt; stroke-linejoin: miter; stroke-miterlimit: 10; fill: rgb(0,0,0); fill-rule: nonzero; opacity: 1;" transform=" matrix(1 0 0 1 0 0) " stroke-linecap="round" />
	<path d="M 28.386 52.839 c -0.234 0 -0.469 -0.082 -0.659 -0.248 l -7.807 -6.839 C 19.704 45.563 19.58 45.288 19.58 45 V 33.269 c 0 -0.552 0.448 -1 1 -1 s 1 0.448 1 1 v 11.277 l 7.466 6.541 c 0.415 0.363 0.457 0.995 0.093 1.411 C 28.941 52.724 28.664 52.839 28.386 52.839 z" style="stroke: none; stroke-width: 1; stroke-dasharray: none; stroke-linecap: butt; stroke-linejoin: miter; stroke-miterlimit: 10; fill: rgb(0,0,0); fill-rule: nonzero; opacity: 1;" transform=" matrix(1 0 0 1 0 0) " stroke-linecap="round" />
	<path d="M 89 5.991 H 70.354 c -0.553 0 -1 -0.448 -1 -1 s 0.447 -1 1 -1 H 89 c 0.553 0 1 0.448 1 1 S 89.553 5.991 89 5.991 z" style="stroke: none; stroke-width: 1; stroke-dasharray: none; stroke-linecap: butt; stroke-linejoin: miter; stroke-miterlimit: 10; fill: rgb(0,0,0); fill-rule: nonzero; opacity: 1;" transform=" matrix(1 0 0 1 0 0) " stroke-linecap="round" />
	<path d="M 89 42.147 H 70.354 c -0.553 0 -1 -0.448 -1 -1 s 0.447 -1 1 -1 H 89 c 0.553 0 1 0.448 1 1 S 89.553 42.147 89 42.147 z" style="stroke: none; stroke-width: 1; stroke-dasharray: none; stroke-linecap: butt; stroke-linejoin: miter; stroke-miterlimit: 10; fill: rgb(0,0,0); fill-rule: nonzero; opacity: 1;" transform=" matrix(1 0 0 1 0 0) " stroke-linecap="round" />
	<path d="M 89 78.304 H 70.354 c -0.553 0 -1 -0.447 -1 -1 s 0.447 -1 1 -1 H 89 c 0.553 0 1 0.447 1 1 S 89.553 78.304 89 78.304 z" style="stroke: none; stroke-width: 1; stroke-dasharray: none; stroke-linecap: butt; stroke-linejoin: miter; stroke-miterlimit: 10; fill: rgb(0,0,0); fill-rule: nonzero; opacity: 1;" transform=" matrix(1 0 0 1 0 0) " stroke-linecap="round" />
	<path d="M 86.432 86.009 H 70.354 c -0.553 0 -1 -0.447 -1 -1 s 0.447 -1 1 -1 h 16.078 c 0.553 0 1 0.447 1 1 S 86.984 86.009 86.432 86.009 z" style="stroke: none; stroke-width: 1; stroke-dasharray: none; stroke-linecap: butt; stroke-linejoin: miter; stroke-miterlimit: 10; fill: rgb(0,0,0); fill-rule: nonzero; opacity: 1;" transform=" matrix(1 0 0 1 0 0) " stroke-linecap="round" />
	<path d="M 80.011 49.853 h -9.657 c -0.553 0 -1 -0.447 -1 -1 s 0.447 -1 1 -1 h 9.657 c 0.553 0 1 0.447 1 1 S 80.563 49.853 80.011 49.853 z" style="stroke: none; stroke-width: 1; stroke-dasharray: none; stroke-linecap: butt; stroke-linejoin: miter; stroke-miterlimit: 10; fill: rgb(0,0,0); fill-rule: nonzero; opacity: 1;" transform=" matrix(1 0 0 1 0 0) " stroke-linecap="round" />
	<path d="M 83.863 13.696 h -13.51 c -0.553 0 -1 -0.448 -1 -1 s 0.447 -1 1 -1 h 13.51 c 0.553 0 1 0.448 1 1 S 84.416 13.696 83.863 13.696 z" style="stroke: none; stroke-width: 1; stroke-dasharray: none; stroke-linecap: butt; stroke-linejoin: miter; stroke-miterlimit: 10; fill: rgb(0,0,0); fill-rule: nonzero; opacity: 1;" transform=" matrix(1 0 0 1 0 0) " stroke-linecap="round" />
</g>
</svg>