<svg xmlns="http://www.w3.org/2000/svg" viewBox="0 0 24 24" id="user">
  <g>
    <path fill="#2196f3" d="M12,10.25A6.758,6.758,0,0,0,5.25,17v3A2.752,2.752,0,0,0,8,22.75h8A2.752,2.752,0,0,0,18.75,20V17A6.758,6.758,0,0,0,12,10.25Z"></path>
    <circle cx="12" cy="6.5" r="5.25" fill="#29b3ff"></circle>
    <path d="M16,22.75H8A2.752,2.752,0,0,1,5.25,20V17a6.75,6.75,0,0,1,13.5,0v3A2.752,2.752,0,0,1,16,22.75Zm-4-11A5.256,5.256,0,0,0,6.75,17v3A1.252,1.252,0,0,0,8,21.25h8A1.252,1.252,0,0,0,17.25,20V17A5.256,5.256,0,0,0,12,11.75Z"></path>
    <path d="M12,11.75A5.25,5.25,0,1,1,17.25,6.5,5.256,5.256,0,0,1,12,11.75Zm0-9A3.75,3.75,0,1,0,15.75,6.5,3.754,3.754,0,0,0,12,2.75Z"></path>
  </g>
</svg>
