<svg xmlns="http://www.w3.org/2000/svg" width="24" height="24" fill="none" viewBox="0 0 24 24" id="user-folder">
  <path fill="#FFC44D" d="M2 3.05951C1.58579 3.05951 1.25 3.3953 1.25 3.80951V20C1.25 20.4142 1.58579 20.75 2 20.75H22C22.4142 20.75 22.75 20.4142 22.75 20V6.66665C22.75 6.25244 22.4142 5.91665 22 5.91665H10.4966L8.81451 3.39348C8.67541 3.18484 8.44124 3.05951 8.19048 3.05951H2Z"></path>
  <path fill="#ECEFF1" d="M12 8.29761C10.5338 8.29761 9.34521 9.48618 9.34521 10.9524 9.34521 12.4186 10.5338 13.6071 12 13.6071 13.4662 13.6071 14.6547 12.4186 14.6547 10.9524 14.6547 9.48618 13.4662 8.29761 12 8.29761zM12.0002 14.0119C10.008 14.0119 8.39307 15.6269 8.39307 17.619 8.39307 18.0332 8.72885 18.369 9.14307 18.369H14.8574C15.2716 18.369 15.6074 18.0332 15.6074 17.619 15.6074 15.6269 13.9924 14.0119 12.0002 14.0119z"></path>
  <path fill="#E5B045" fill-rule="evenodd" d="M12 5.91665V20.75H2C1.58579 20.75 1.25 20.4142 1.25 20V3.80951C1.25 3.3953 1.58579 3.05951 2 3.05951H8.19048C8.44124 3.05951 8.67541 3.18484 8.81451 3.39348L10.4966 5.91665H12Z" clip-rule="evenodd"></path>
  <path fill="#CFD8DC" fill-rule="evenodd" d="M12 8.29761V13.6071C12 13.6071 12 13.6071 12 13.6071 10.5338 13.6071 9.34521 12.4186 9.34521 10.9524 9.34521 9.48618 10.5338 8.29761 12 8.29761 12 8.29761 12 8.29761 12 8.29761zM12 14.0119V18.369H9.14307C8.72885 18.369 8.39307 18.0332 8.39307 17.619 8.39307 15.6269 10.0079 14.012 12 14.0119z" clip-rule="evenodd"></path>
</svg>
