<?xml version="1.0" encoding="utf-8"?>
<!-- Uploaded to: SVG Repo, www.svgrepo.com, Generator: SVG Repo Mixer Tools -->
<svg xmlns="http://www.w3.org/2000/svg" xmlns:xlink="http://www.w3.org/1999/xlink" version="1.1" id="videocard"  viewBox="0 0 224 218.1426" enable-background="new 0 0 224 218.1426" xml:space="preserve" width="512" height="512">
<g>
	<polygon fill="#D0E8FF" points="180,122.3203 180,114.3203 180,110.3203 180,102.3203 180,98.3203 180,90.3203 180,86.3203    180,78.3203 132,78.3203 132,86.3203 132,90.3203 132,98.3203 132,102.3203 132,110.3203 132,114.3203 132,122.3203  "/>
	<rect x="12" y="66.3203" fill="#D0E8FF" width="8" height="32"/>
	<path fill="#D0E8FF" d="M52.0352,70.3203h31.9297c2.2266,0,4.0352-1.8047,4.0352-4.0195v-3.9609   c0-2.2148-1.8086-4.0195-4.0352-4.0195H52.0352C49.8086,58.3203,48,60.125,48,62.3398v3.9609   C48,68.5156,49.8086,70.3203,52.0352,70.3203z"/>
	<path fill="#D0E8FF" d="M52.0352,106.3203h31.9297c2.2266,0,4.0352-1.8047,4.0352-4.0195v-3.9609   c0-2.2148-1.8086-4.0195-4.0352-4.0195H52.0352C49.8086,94.3203,48,96.125,48,98.3398v3.9609   C48,104.5156,49.8086,106.3203,52.0352,106.3203z"/>
	<path fill="#5CB0FF" d="M28,58.3203v48v48h16v16h172v-132H28V58.3203z M84,162.3203c-4.4102,0-8-3.5898-8-8s3.5898-8,8-8   s8,3.5898,8,8S88.4102,162.3203,84,162.3203z M184,162.3203c-4.4102,0-8-3.5898-8-8s3.5898-8,8-8s8,3.5898,8,8   S188.4102,162.3203,184,162.3203z M116,114.3203h8v-4h-8v-8h8v-4h-8v-8h8v-4h-8v-8h8v-8h64v8h8v8h-8v4h8v8h-8v4h8v8h-8v4h8v8h-8v8   h-64v-8h-8V114.3203z M108,146.3203c4.4102,0,8,3.5898,8,8s-3.5898,8-8,8s-8-3.5898-8-8S103.5898,146.3203,108,146.3203z    M40,62.3398c0-6.6289,5.3984-12.0195,12.0352-12.0195h31.9297C90.6016,50.3203,96,55.7109,96,62.3398v3.9609   c0,6.6289-5.3984,12.0195-12.0352,12.0195H52.0352C45.3984,78.3203,40,72.9297,40,66.3008V62.3398z M40,98.3398   c0-6.6289,5.3984-12.0195,12.0352-12.0195h31.9297C90.6016,86.3203,96,91.7109,96,98.3398v3.9609   c0,6.6289-5.3984,12.0195-12.0352,12.0195H52.0352c-6.6367,0-12.0352-5.3906-12.0352-12.0195V98.3398z"/>
	<path fill="#1C71DA" d="M28,30.3203V10.1328H0v8h20v12.1875v28H4v48h16v56v40.1875h8v-40.1875h8v16h188v-148H28z M12,98.3203v-32h8   v32H12z M216,170.3203H44v-16H28v-48v-48v-20h188V170.3203z"/>
	<path fill="#1C71DA" d="M52.0352,78.3203h31.9297C90.6016,78.3203,96,72.9297,96,66.3008v-3.9609   c0-6.6289-5.3984-12.0195-12.0352-12.0195H52.0352C45.3984,50.3203,40,55.7109,40,62.3398v3.9609   C40,72.9297,45.3984,78.3203,52.0352,78.3203z M48,62.3398c0-2.2148,1.8086-4.0195,4.0352-4.0195h31.9297   c2.2266,0,4.0352,1.8047,4.0352,4.0195v3.9609c0,2.2148-1.8086,4.0195-4.0352,4.0195H52.0352   c-2.2266,0-4.0352-1.8047-4.0352-4.0195V62.3398z"/>
	<path fill="#1C71DA" d="M52.0352,114.3203h31.9297c6.6367,0,12.0352-5.3906,12.0352-12.0195v-3.9609   c0-6.6289-5.3984-12.0195-12.0352-12.0195H52.0352C45.3984,86.3203,40,91.7109,40,98.3398v3.9609   C40,108.9297,45.3984,114.3203,52.0352,114.3203z M48,98.3398c0-2.2148,1.8086-4.0195,4.0352-4.0195h31.9297   c2.2266,0,4.0352,1.8047,4.0352,4.0195v3.9609c0,2.2148-1.8086,4.0195-4.0352,4.0195H52.0352   c-2.2266,0-4.0352-1.8047-4.0352-4.0195V98.3398z"/>
	<path fill="#1C71DA" d="M124,130.3203h64v-8h8v-8h-8v-4h8v-8h-8v-4h8v-8h-8v-4h8v-8h-8v-8h-64v8h-8v8h8v4h-8v8h8v4h-8v8h8v4h-8v8h8   V130.3203z M132,110.3203v-8v-4v-8v-4v-8h48v8v4v8v4v8v4v8h-48v-8V110.3203z"/>
	<path fill="#1C71DA" d="M84,146.3203c-4.4102,0-8,3.5898-8,8s3.5898,8,8,8s8-3.5898,8-8S88.4102,146.3203,84,146.3203z"/>
	<path fill="#1C71DA" d="M108,162.3203c4.4102,0,8-3.5898,8-8s-3.5898-8-8-8s-8,3.5898-8,8S103.5898,162.3203,108,162.3203z"/>
	<path fill="#1C71DA" d="M184,146.3203c-4.4102,0-8,3.5898-8,8s3.5898,8,8,8s8-3.5898,8-8S188.4102,146.3203,184,146.3203z"/>
</g>
<path fill="#FF5D5D" d="M176.252,22.1445c-1.0234,0-2.0479-0.3906-2.8281-1.1719c-1.5625-1.5615-1.5625-4.0947,0-5.6562  l14.1426-14.1426c1.5605-1.5625,4.0957-1.5625,5.6562,0c1.5625,1.5615,1.5625,4.0947,0,5.6562l-14.1426,14.1426  C178.2998,21.7539,177.2754,22.1445,176.252,22.1445z"/>
<path fill="#FF5D5D" d="M190.3945,22.1426c-1.0234,0-2.0479-0.3906-2.8281-1.1719L173.4238,6.8281  c-1.5625-1.5615-1.5625-4.0947,0-5.6562c1.5605-1.5625,4.0957-1.5625,5.6562,0l14.1426,14.1426  c1.5625,1.5615,1.5625,4.0947,0,5.6562C192.4424,21.752,191.418,22.1426,190.3945,22.1426z"/>
<path fill="#00D40B" d="M166.252,218.1426c-7.7197,0-14-6.2803-14-14s6.2803-14,14-14s14,6.2803,14,14  S173.9717,218.1426,166.252,218.1426z M166.252,198.1426c-3.3086,0-6,2.6914-6,6s2.6914,6,6,6s6-2.6914,6-6  S169.5605,198.1426,166.252,198.1426z"/>
<path fill="#FFC504" d="M143.5664,164.7695c-1.0234,0-2.0469-0.3906-2.8281-1.1719l-11.3145-11.3135  c-0.75-0.75-1.1719-1.7676-1.1719-2.8281s0.4219-2.0781,1.1719-2.8281l11.3145-11.3135c1.5625-1.5625,4.0938-1.5625,5.6562,0  l11.3135,11.3135c1.5625,1.5615,1.5625,4.0947,0,5.6562l-11.3135,11.3135C145.6143,164.3789,144.5898,164.7695,143.5664,164.7695z   M137.9092,149.4561l5.6572,5.6572l5.6562-5.6572l-5.6562-5.6572L137.9092,149.4561z"/>
</svg>