<?xml version="1.0" encoding="iso-8859-1"?>
<!-- Uploaded to: SVG Repo, www.svgrepo.com, Generator: SVG Repo Mixer Tools -->
<svg height="800px" width="800px" version="1.1" id="Layer_1" xmlns="http://www.w3.org/2000/svg" xmlns:xlink="http://www.w3.org/1999/xlink" 
	 viewBox="0 0 512 512" xml:space="preserve">
<polygon style="fill:#00D7DF;" points="206.842,239.61 206.842,53.101 10.199,79.804 10.383,239.61 "/>
<path style="fill:#29ABE2;" d="M206.842,249.809H10.383c-5.629,0-10.192-4.559-10.199-10.187L0,79.815
	c-0.006-5.107,3.766-9.431,8.826-10.118l196.643-26.703c2.922-0.398,5.865,0.489,8.082,2.424c2.217,1.936,3.49,4.738,3.49,7.682
	V239.61C217.041,245.243,212.474,249.809,206.842,249.809z M20.57,229.411h176.073V64.779L20.409,88.711L20.57,229.411z"/>
<polygon style="fill:#00D7DF;" points="10.359,433.819 206.842,460.75 206.842,272.391 10.351,272.391 "/>
<path style="fill:#29ABE2;" d="M206.842,470.949c-0.46,0-0.923-0.032-1.385-0.095L8.974,443.923
	c-5.05-0.693-8.814-5.007-8.814-10.104L0.152,272.391c0-2.705,1.075-5.299,2.987-7.212s4.507-2.987,7.212-2.987h196.49
	c5.632,0,10.199,4.566,10.199,10.199v188.36c0,2.947-1.274,5.749-3.495,7.686C211.677,470.066,209.291,470.949,206.842,470.949z
	 M20.559,424.923l176.084,24.134V282.589H20.551L20.559,424.923z"/>
<polygon style="fill:#00D7DF;" points="501.801,272.391 239.61,272.391 239.61,464.927 501.733,501.801 "/>
<g>
	<path style="fill:#29ABE2;" d="M501.733,512c-0.472,0-0.948-0.033-1.421-0.1l-262.123-36.874
		c-5.035-0.708-8.778-5.015-8.778-10.099V272.39c0-5.633,4.567-10.199,10.199-10.199h262.191c2.705,0,5.3,1.075,7.213,2.988
		c1.912,1.913,2.987,4.508,2.986,7.214l-0.068,229.411c-0.001,2.953-1.281,5.759-3.51,7.695
		C506.555,511.122,504.174,512,501.733,512z M249.809,456.061l241.728,34.005l0.062-207.477h-241.79V456.061z"/>
	<path style="fill:#29ABE2;" d="M459.965,470.221c-0.473,0-0.952-0.033-1.433-0.101l-7.102-1c-5.579-0.784-9.464-5.942-8.68-11.52
		c0.785-5.578,5.938-9.469,11.52-8.678l7.102,0.999c5.579,0.784,9.464,5.942,8.68,11.52
		C469.335,466.536,464.967,470.221,459.965,470.221z"/>
	<path style="fill:#29ABE2;" d="M419.197,464.486c-0.473,0-0.953-0.034-1.434-0.101l-140.738-19.799
		c-5.579-0.784-9.464-5.942-8.68-11.52c0.784-5.578,5.947-9.463,11.521-8.679l140.738,19.798c5.579,0.784,9.464,5.942,8.68,11.52
		C428.566,460.802,424.199,464.486,419.197,464.486z"/>
</g>
<polygon style="fill:#00D7DF;" points="501.733,10.199 239.61,48.339 239.61,239.61 501.733,239.61 "/>
<path style="fill:#29ABE2;" d="M501.733,249.809H239.61c-5.632,0-10.199-4.566-10.199-10.199V48.339
	c0-5.066,3.719-9.364,8.732-10.093l262.122-38.14c2.93-0.425,5.901,0.443,8.14,2.379c2.24,1.937,3.527,4.753,3.527,7.714V239.61
	C511.932,245.243,507.364,249.809,501.733,249.809z M249.809,229.411h241.724V21.99L249.809,57.161V229.411z"/>
</svg>