<?xml version="1.0" encoding="iso-8859-1"?>
<!-- Uploaded to: SVG Repo, www.svgrepo.com, Generator: SVG Repo Mixer Tools -->
<svg version="1.1" id="Layer_1" xmlns="http://www.w3.org/2000/svg" xmlns:xlink="http://www.w3.org/1999/xlink" 
	 viewBox="0 0 512 512" xml:space="preserve">
<polygon style="fill:#FD7052;" points="377.685,245.935 377.685,428.986 140.361,428.986 39.627,512 39.627,428.986 1.517,428.986 
	1.517,245.935 "/>
<rect x="189.606" y="245.935" style="fill:#FF4F18;" width="188.079" height="183.052"/>
<polygon style="fill:#FD7052;" points="510.483,0 510.483,183.052 472.373,183.052 472.373,266.055 371.639,183.052 
	134.315,183.052 134.315,0 "/>
<polygon style="fill:#FF4F18;" points="510.483,0 510.483,183.052 472.373,183.052 472.373,266.055 371.639,183.052 
	322.394,183.052 322.394,0 "/>
<g>
	<rect x="227.186" y="73.052" style="fill:#FFFFFF;" width="31.161" height="31.161"/>
	<rect x="306.814" y="73.052" style="fill:#FFFFFF;" width="31.161" height="31.161"/>
	<rect x="386.451" y="73.052" style="fill:#FFFFFF;" width="31.161" height="31.161"/>
	<rect x="94.387" y="321.657" style="fill:#FFFFFF;" width="31.161" height="31.161"/>
	<rect x="174.025" y="321.657" style="fill:#FFFFFF;" width="31.161" height="31.161"/>
	<rect x="253.653" y="321.657" style="fill:#FFFFFF;" width="31.161" height="31.161"/>
</g>
<g>
	<rect x="322.394" y="73.052" style="fill:#D9D8DB;" width="15.581" height="31.161"/>
	<rect x="386.451" y="73.052" style="fill:#D9D8DB;" width="31.161" height="31.161"/>
	<rect x="189.606" y="321.657" style="fill:#D9D8DB;" width="15.581" height="31.161"/>
	<rect x="253.653" y="321.657" style="fill:#D9D8DB;" width="31.161" height="31.161"/>
</g>
</svg>