<?xml version="1.0" ?>
<!-- Uploaded to: SVG Repo, www.svgrepo.com, Generator: SVG Repo Mixer Tools -->
<svg width="800px" height="800px" viewBox="0 0 512 512" id="Layer_1" version="1.1" xml:space="preserve" xmlns="http://www.w3.org/2000/svg" xmlns:xlink="http://www.w3.org/1999/xlink">
<style type="text/css">
	.st0{fill:#3B4652;}
	.st1{fill:#2B79C2;}
</style>
<g>
<g>
<rect class="st1" height="21.9" width="29.8" x="271.6" y="191.3"/>
<ellipse class="st1" cx="270.8" cy="373.7" rx="16.3" ry="16.3"/>
<rect class="st1" height="21.9" width="29.8" x="271.6" y="263.2"/>
<rect class="st1" height="21.9" width="29.8" x="271.6" y="227.2"/>
<rect class="st1" height="21.9" width="29.8" x="271.6" y="155.4"/>
<path class="st0" d="M350.2,297.8V92c0-17.6-7.1-33.5-18.7-45c-11.5-11.5-27.4-18.6-45-18.6c-35.2,0-63.7,28.5-63.7,63.7v205.8    c-24.4,19-40.2,48.7-40.2,82c0,57.4,46.5,103.9,103.9,103.9c57.4,0,103.9-46.5,103.9-103.9C390.3,346.5,374.6,316.8,350.2,297.8z     M286.5,448.9c-38.1,0-69.1-31-69.1-69.1c0-21.5,9.7-41.4,26.7-54.6l13.4-10.4V92c0-15.9,13-28.9,28.9-28.9c7.7,0,15,3,20.4,8.5    c5.5,5.5,8.5,12.7,8.5,20.5v222.8l13.4,10.4c17,13.2,26.7,33.1,26.7,54.6C355.6,417.9,324.6,448.9,286.5,448.9z"/>
<rect class="st1" height="21.9" width="29.8" x="271.6" y="119.4"/>
</g>
<path class="st1" d="M182.6,108.5h-10.1l7.1-7.1c2.7-2.7,2.7-7.2,0-9.9c-2.7-2.7-7.2-2.7-9.9,0l-7.1,7.1V88.5c0-3.9-3.1-7-7-7   c-3.9,0-7,3.1-7,7v10.1l-7.1-7.1c-2.7-2.7-7.2-2.7-9.9,0c-2.7,2.7-2.7,7.2,0,9.9l7.1,7.1h-10.1c-3.9,0-7,3.1-7,7c0,3.9,3.1,7,7,7   h10.1l-7.1,7.1c-2.7,2.7-2.7,7.2,0,9.9c1.4,1.4,3.2,2.1,4.9,2.1c1.8,0,3.6-0.7,4.9-2.1l7.1-7.1v10.1c0,3.9,3.1,7,7,7   c3.9,0,7-3.1,7-7v-10.1l7.1,7.1c1.4,1.4,3.2,2.1,4.9,2.1s3.6-0.7,4.9-2.1c2.7-2.7,2.7-7.2,0-9.9l-7.1-7.1h10.1c3.9,0,7-3.1,7-7   C189.6,111.6,186.5,108.5,182.6,108.5z"/>
</g>
</svg>