<?xml version="1.0" encoding="iso-8859-1"?>
<!-- Uploaded to: SVG Repo, www.svgrepo.com, Generator: SVG Repo Mixer Tools -->
<svg version="1.1" id="Layer_1" xmlns="http://www.w3.org/2000/svg" xmlns:xlink="http://www.w3.org/1999/xlink" 
	 viewBox="0 0 512 512" xml:space="preserve">
<g>
	<rect x="1.103" y="439.172" style="fill:#00D7DF;" width="220.69" height="72.828"/>
	<rect x="1.103" y="293.517" style="fill:#00D7DF;" width="220.69" height="72.828"/>
	<rect x="1.103" y="145.655" style="fill:#00D7DF;" width="220.69" height="72.828"/>
	<rect x="1.103" style="fill:#00D7DF;" width="220.69" height="72.828"/>
</g>
<g>
	<rect x="111.448" y="439.172" style="fill:#00A1A7;" width="110.345" height="72.828"/>
	<rect x="111.448" y="293.517" style="fill:#00A1A7;" width="110.345" height="72.828"/>
	<rect x="111.448" y="145.655" style="fill:#00A1A7;" width="110.345" height="72.828"/>
	<rect x="111.448" style="fill:#00A1A7;" width="110.345" height="72.828"/>
</g>
<g>
	<rect x="292.414" y="439.172" style="fill:#FF5023;" width="218.483" height="72.828"/>
	<rect x="292.414" y="293.517" style="fill:#FF5023;" width="218.483" height="72.828"/>
	<rect x="292.414" y="145.655" style="fill:#FF5023;" width="218.483" height="72.828"/>
	<rect x="292.414" style="fill:#FF5023;" width="218.483" height="72.828"/>
</g>
<g>
	<rect x="402.759" y="439.172" style="fill:#BF3C1A;" width="108.138" height="72.828"/>
	<rect x="402.759" y="293.517" style="fill:#BF3C1A;" width="108.138" height="72.828"/>
	<rect x="402.759" y="145.655" style="fill:#BF3C1A;" width="108.138" height="72.828"/>
	<rect x="402.759" style="fill:#BF3C1A;" width="108.138" height="72.828"/>
</g>
</svg>