<?xml version="1.0" encoding="iso-8859-1"?>
<!-- Uploaded to: SVG Repo, www.svgrepo.com, Generator: SVG Repo Mixer Tools -->
<svg version="1.1" id="Layer_1" xmlns="http://www.w3.org/2000/svg" xmlns:xlink="http://www.w3.org/1999/xlink" 
	 viewBox="0 0 512 512" xml:space="preserve">
<g>
	<rect x="49.095" y="86.071" style="fill:#57555C;" width="353.134" height="95.727"/>
	<rect x="49.095" y="228.881" style="fill:#57555C;" width="353.134" height="95.716"/>
	<rect x="49.095" y="371.691" style="fill:#57555C;" width="353.134" height="95.716"/>
</g>
<g>
	<rect x="225.656" y="86.071" style="fill:#3C3A41;" width="176.572" height="95.727"/>
	<rect x="225.656" y="228.881" style="fill:#3C3A41;" width="176.572" height="95.716"/>
	<rect x="225.656" y="371.691" style="fill:#3C3A41;" width="176.572" height="95.716"/>
</g>
<rect x="22.255" style="fill:#FFB74D;" width="406.815" height="120.986"/>
<g>
	<rect x="58.823" y="43.97" style="fill:#FFFFFF;" width="23.238" height="24.18"/>
	<rect x="100.638" y="43.97" style="fill:#FFFFFF;" width="23.238" height="24.18"/>
</g>
<rect x="22.255" y="156.246" style="fill:#FFB74D;" width="406.815" height="120.986"/>
<g>
	<rect x="58.823" y="199.988" style="fill:#FFFFFF;" width="23.238" height="24.18"/>
	<rect x="100.638" y="199.988" style="fill:#FFFFFF;" width="23.238" height="24.18"/>
</g>
<rect x="22.255" y="312.481" style="fill:#FFB74D;" width="406.815" height="120.996"/>
<g>
	<rect x="58.823" y="360.894" style="fill:#FFFFFF;" width="23.238" height="24.18"/>
	<rect x="100.638" y="360.894" style="fill:#FFFFFF;" width="23.238" height="24.18"/>
</g>
<g>
	<rect x="225.656" style="fill:#FFA91E;" width="203.413" height="120.986"/>
	<rect x="225.656" y="156.246" style="fill:#FFA91E;" width="203.413" height="120.986"/>
	<rect x="225.656" y="312.481" style="fill:#FFA91E;" width="203.413" height="120.996"/>
</g>
<path style="fill:#FD7052;" d="M489.743,405.627c0.265,38.055-19.631,71.548-49.681,90.346v0.01
	c-16.016,10.018-34.93,15.868-55.215,16.009l-0.157,0.001c-0.199,0.001-0.398,0.003-0.597-0.006
	c-20.013,0.003-38.724-5.564-54.679-15.255c-6.804-4.121-13.111-8.999-18.794-14.51c-17.08-16.553-28.598-38.822-31.442-63.769
	c-0.424-3.725-0.67-7.515-0.696-11.358c-0.22-31.657,13.521-60.154,35.44-79.67c0.24-0.212,0.479-0.422,0.718-0.623
	c8.546-7.474,18.316-13.585,28.957-18.015c12.04-4.995,25.205-7.852,39.028-8.031c0.251-0.013,0.503-0.014,0.754-0.016
	C441.718,300.336,489.337,347.289,489.743,405.627z"/>
<path style="fill:#FF4F18;" d="M489.743,405.627c0.265,38.055-19.631,71.548-49.681,90.346v0.01
	c-16.016,10.018-34.93,15.868-55.215,16.009l-0.157,0.001c-0.199,0.001-0.398,0.003-0.597-0.006l-1.468-211.23
	c0.251-0.013,0.503-0.014,0.754-0.016C441.718,300.336,489.337,347.289,489.743,405.627z"/>
<path style="fill:#0088FF;" d="M438.932,441.88l0.376,54.109c-16.016,10.018-34.93,15.868-55.215,16.009l-0.157,0.001l-0.412-69.734
	l-0.398-67.744l-0.168-28.682l6.073,10.409l10.588,18.159L435,435.132L438.932,441.88z"/>
<path style="fill:#67BFFF;" d="M382.959,345.829v0.01l0.168,28.682l0.398,67.744l0.412,69.734c-0.199,0.001-0.398,0.003-0.597-0.006
	c-20.013,0.003-38.724-5.564-54.679-15.255l-0.376-54.098l3.931-6.981l34.429-61.022l15.549-27.525l0.745-1.314L382.959,345.829z"/>
<polygon style="fill:#FFC473;" points="328.283,442.65 328.283,442.641 332.214,435.662 366.65,374.64 382.933,345.797 
	382.958,345.835 399.616,374.411 435.004,435.129 438.933,441.88 "/>
<polygon style="fill:#FFDBA8;" points="328.283,442.65 328.283,442.641 332.214,435.662 366.65,374.64 382.933,345.797 
	382.958,345.835 383.53,442.265 "/>
<polygon style="fill:#3C3A41;" points="366.653,374.637 382.933,345.797 382.956,345.832 399.612,374.407 "/>
<polygon style="fill:#57555C;" points="383.126,374.522 366.653,374.637 382.933,345.797 382.956,345.832 "/>
</svg>