<?xml version="1.0" encoding="iso-8859-1"?>
<!-- Uploaded to: SVG Repo, www.svgrepo.com, Generator: SVG Repo Mixer Tools -->
<svg height="800px" width="800px" version="1.1" id="Layer_1" xmlns="http://www.w3.org/2000/svg" xmlns:xlink="http://www.w3.org/1999/xlink" 
	 viewBox="0 0 512 512" xml:space="preserve">
<path style="fill:#FFD41D;" d="M370.183,122.843c0,6.594-5.345,11.939-11.939,11.939H22.387c-6.593,0-11.938-5.345-11.938-11.939
	V97.632c0-6.594,5.345-11.939,11.938-11.939h335.859c6.594,0,11.939,5.345,11.939,11.939v25.211H370.183z"/>
<polygon style="fill:#FFAF00;" points="292.32,426.306 88.312,426.306 22.387,134.782 358.245,134.782 "/>
<path style="fill:#10BAFC;" d="M351.096,426.306v-73.234c0-41.5,33.68-75.14,75.228-75.14l0,0c41.548,0,75.227,33.64,75.227,75.14
	v73.234H351.096z"/>
<path style="fill:#0084FF;" d="M426.324,277.932c7.313,0,14.374,1.064,21.058,3.006l8.722-140.417
	c0-16.447-13.334-29.779-29.78-29.779c-16.446,0-29.779,13.333-29.779,29.779l8.722,140.417
	C411.95,278.995,419.011,277.932,426.324,277.932z"/>
<path style="fill:#FFD41D;" d="M283.367,108.148h-0.233c0.001-0.092,0.014-0.18,0.014-0.272c0-7.494-6.074-13.567-13.568-13.567
	c-7.493,0-13.567,6.074-13.567,13.567c0,0.092,0.013,0.18,0.014,0.272h-0.014c0,111.101-89.73,201.002-200.619,201.002
	c-7.493,0-13.567,6.074-13.567,13.567c0,7.439,5.986,13.471,13.403,13.56v0.008c0.044,0,0.088-0.002,0.132-0.002
	c0.011,0,0.022,0.002,0.032,0.002c0.019,0,0.037-0.002,0.055-0.002C181.447,336.164,283.367,234.173,283.367,108.148z"/>
<path d="M281.359,267.378c-1.976,0-3.972-0.559-5.743-1.727c-4.818-3.176-6.148-9.658-2.972-14.476l0.173-0.262
	c3.163-4.825,9.641-6.172,14.468-3.006c4.825,3.165,6.171,9.643,3.006,14.468l-0.2,0.306
	C288.082,265.726,284.753,267.378,281.359,267.378z"/>
<path d="M181.439,358.107c-3.752,0-7.378-2.026-9.251-5.576c-2.693-5.104-0.738-11.425,4.367-14.117
	c29.138-15.372,54.813-35.887,76.314-60.976c3.753-4.381,10.35-4.891,14.733-1.135c4.382,3.755,4.891,10.352,1.135,14.734
	c-23.221,27.096-50.954,49.254-82.43,65.86C184.75,357.718,183.082,358.107,181.439,358.107z"/>
<path d="M465.943,374.071c-0.016,0-0.029,0-0.045,0c-5.75,0-10.424,4.65-10.448,10.405c-0.023,5.771,4.635,10.469,10.405,10.493
	l0.245,0.001c0.016,0,0.029,0,0.045,0c5.75,0,10.424-4.65,10.448-10.405c0.023-5.77-4.634-10.469-10.405-10.493L465.943,374.071z"/>
<path d="M458.3,273.692l8.232-132.522c0.014-0.216,0.021-0.432,0.021-0.648c0-22.182-18.046-40.228-40.229-40.228
	c-22.182,0-40.228,18.046-40.228,40.228c0,0.216,0.007,0.433,0.021,0.648l8.231,132.522c-31.444,12.687-53.699,43.478-53.699,79.381
	v73.234c0,5.771,4.679,10.449,10.449,10.449h150.455c5.77,0,10.449-4.678,10.449-10.449v-73.234
	C512,317.168,489.745,286.379,458.3,273.692z M426.323,121.19c10.563,0,19.174,8.515,19.329,19.041l-7.952,128.029
	c-3.724-0.496-7.517-0.777-11.377-0.777c-3.859,0-7.652,0.281-11.378,0.777l-7.952-128.029
	C407.151,129.706,415.762,121.19,426.323,121.19z M491.102,415.857H361.545V394.97h70.551c5.77,0,10.449-4.678,10.449-10.449
	s-4.679-10.449-10.449-10.449h-70.551v-21c0-35.671,29.06-64.691,64.779-64.691c35.72,0,64.778,29.02,64.778,64.691V415.857z"/>
<path d="M358.245,75.244H22.387C10.042,75.244,0,85.286,0,97.632v25.212c0,9.24,5.627,17.187,13.633,20.602l35.309,156.143
	c-10.118,2.826-17.565,12.122-17.565,23.129c0,13.083,10.645,23.853,23.752,24.007c0,0,3.308-0.019,4.463-0.037l18.526,81.922
	c1.077,4.763,5.309,8.144,10.192,8.144h204.008c4.883,0,9.115-3.381,10.192-8.144l64.487-285.165
	c8.006-3.415,13.634-11.363,13.634-20.602V97.632C380.632,85.286,370.59,75.244,358.245,75.244z M20.898,122.843V97.632
	c0-0.821,0.668-1.49,1.489-1.49h226.25c-1.953,3.472-3.073,7.474-3.073,11.734c0,0.046-0.242,11.12-0.693,16.457H22.387
	C21.565,124.333,20.898,123.665,20.898,122.843z M241.937,145.231c-16.347,82.711-86.274,146.345-171.897,152.91l-34.579-152.91
	H241.937z M55.353,325.828c-1.697-0.02-3.077-1.415-3.077-3.111c0-1.72,1.399-3.118,3.118-3.118
	c56.426,0,109.444-21.984,149.289-61.906c39.712-39.788,61.634-91.594,61.773-147.914c0.012-0.218,0.015-1.964,0.01-2.071
	c0.088-1.643,1.451-2.952,3.115-2.952c1.665,0,3.027,1.309,3.115,2.952c0.065,0.38,0.172,1.178,0.213,2.582
	c-1.154,118.922-97.939,215.409-216.754,215.544L55.353,325.828z M283.971,415.857H96.662l-15.921-70.403
	c54.365-5.589,104.669-29.471,143.658-68.653c35.962-36.14,58.93-81.907,66.578-131.57h54.192L283.971,415.857z M359.735,122.843
	c0,0.821-0.669,1.49-1.49,1.49h-64.975c0.354-5.363,0.432-10.76,0.546-16.185c0.062-2.873-1.723-9.18-3.315-12.006h67.744
	c0.821,0,1.49,0.669,1.49,1.49V122.843z"/>
</svg>