<?xml version="1.0" ?>
<!-- Uploaded to: SVG Repo, www.svgrepo.com, Generator: SVG Repo Mixer Tools -->
<svg width="800px" height="800px" viewBox="0 0 512 512" id="Layer_1" version="1.1" xml:space="preserve" xmlns="http://www.w3.org/2000/svg" xmlns:xlink="http://www.w3.org/1999/xlink">
<style type="text/css">
	.st0{fill:#3B4652;}
	.st1{fill:#2B79C2;}
</style>
<g>
<path class="st0" d="M385.1,452.6L279.9,397l35.2-66.6l7.2-13.5c4-7.5,4-16.1,0.7-23.3l45.4-27.7c0.3-0.2,0.6-0.4,0.9-0.6l7.4,8.8   c6.9,8.3,20.1,6.7,24.9-2.9l0,0c8.3-7,9.8-19,3.9-27.8l24.7-15.1c3.3-2,4.6-6.3,2.7-9.6c-2-3.4-6.4-4.6-9.7-2.5L397.3,232   c-0.3,0.2-0.6,0.4-0.9,0.6l-69.9-83.3l-15.4-19.5c-15.6-19.8-46.3-17.6-58.9,4.3l-51.2,88.6v0c-11.4,19.8-4.1,45.2,16.1,55.9   l26.6,14l28.9,15.3l-74.8,45.6l-98.4-52c-7.4-3.9-16.7-1.1-20.6,6.4l0,0c-3.9,7.4-1.1,16.7,6.4,20.6l82.3,43.5l-41.6,25.4l-5.9-7.3   c-2.4-3-6.8-3.7-9.9-1.4c-3.2,2.4-3.7,6.9-1.2,10l4.9,6.1l-13.8,8.4c-3.3,2-4.6,6.3-2.7,9.6c1.3,2.3,3.7,3.5,6.1,3.5   c1.2,0,2.5-0.3,3.6-1l15.6-9.5l6.4,7.9c1.4,1.7,3.4,2.6,5.4,2.6c1.6,0,3.3-0.6,4.6-1.7c2.9-2.5,3.1-6.9,0.7-9.9l-5-6.2l47.1-28.7   l189,99.9c50.6,23.1,63.8-31.2,64.1-32.6C423,470.7,385.1,452.6,385.1,452.6z M311.2,281l-13.5-7.2l-33-17.4l39.5-68.5l56,66.7   L314,282.7C313.1,282.1,312.2,281.5,311.2,281z M212.2,361.2l58-35.3l-27.3,51.6L212.2,361.2z"/>
<circle class="st1" cx="326.5" cy="66.3" r="39.6"/>
</g>
</svg>