<?xml version="1.0" ?>
<!-- Uploaded to: SVG Repo, www.svgrepo.com, Generator: SVG Repo Mixer Tools -->
<svg width="800px" height="800px" viewBox="0 0 512 512" id="Layer_1" version="1.1" xml:space="preserve" xmlns="http://www.w3.org/2000/svg" xmlns:xlink="http://www.w3.org/1999/xlink">
<style type="text/css">
	.st0{fill:#3B4652;}
	.st1{fill:#2B79C2;}
</style>
<g>
<path class="st0" d="M352.8,241.3c-4-4.1-9.5-6.3-15.3-6.3H134.6c-5.7,0-11.2,2.3-15.3,6.3l-48.5,48.5c-4.1,4.1-6.3,9.6-6.3,15.3   v116.7c0,5.7,2.3,11.2,6.3,15.3l48.5,48.5c4.1,4.1,9.5,6.3,15.3,6.3h202.9c5.7,0,11.2-2.3,15.3-6.3l48.5-48.5   c4.1-4.1,6.3-9.6,6.3-15.3V305.1c0-5.7-2.3-11.2-6.3-15.3L352.8,241.3z M204.4,278.1h63.3v119.4h-63.3V278.1z M107.6,399.8V314   l35.9-35.9h27.4v121.7H107.6z M301.1,461.9H176.7l-20.4-30.6h165.2L301.1,461.9z M364.6,399.8h-63.3V278.1h27.4l36,35.9V399.8z"/>
<path class="st1" d="M176.6,221h118.9l-16.2-24.8h-36.7c0.2-0.7,0.4-1.5,0.4-2.3v-46.1c-2.3,0.4-4.6,0.5-7,0.5   c-2.4,0-4.7-0.2-7-0.5V194c0,0.8,0.1,1.5,0.4,2.3h-36.7L176.6,221z"/>
<path class="st0" d="M229.1,133.7c2.2,0.5,4.6,0.8,6.9,0.8s4.7-0.3,7-0.8c6.8-1.5,12.9-5.2,17.3-10.3c1.5-1.8,2.9-3.7,4-5.7   c1.1-2,2-4.2,2.7-6.5c0.8-2.9,1.3-5.9,1.3-9.1c0-17.9-14.5-32.3-32.3-32.3c-9.7,0-18.4,4.3-24.3,11c-1.5,1.8-2.9,3.7-4,5.7   c-1.1,2-2,4.2-2.7,6.5c-0.8,2.9-1.3,5.9-1.3,9.1C203.7,117.6,214.6,130.5,229.1,133.7z"/>
<path class="st1" d="M450.9,212.2L279.6,118c-0.8,2.2-1.8,4.3-2.9,6.4c-1.1,2.1-2.4,4-3.8,5.9l171.4,94.2c1.1,0.6,2.2,0.9,3.4,0.9   c2.5,0,4.9-1.3,6.1-3.6C455.5,218.3,454.3,214.1,450.9,212.2z"/>
<path class="st1" d="M83.3,26.1l109.3,60.1c0.8-2.2,1.8-4.3,2.9-6.4c1.1-2.1,2.4-4,3.8-5.9L90,13.9c-3.4-1.9-7.6-0.6-9.5,2.8   C78.6,20,79.9,24.3,83.3,26.1z"/>
</g>
</svg>