<?xml version="1.0" encoding="iso-8859-1"?>
<!-- Uploaded to: SVG Repo, www.svgrepo.com, Generator: SVG Repo Mixer Tools -->
<svg version="1.1" id="Layer_1" xmlns="http://www.w3.org/2000/svg" xmlns:xlink="http://www.w3.org/1999/xlink" 
	 viewBox="0 0 512 512" xml:space="preserve">
<polygon style="fill:#C1C1C1;" points="445.718,0 402.27,0 381.355,356.998 457.479,265.386 "/>
<g>
	<polygon style="fill:#DFDFDF;" points="293.724,78.817 269.71,78.817 248.795,340.303 301.323,280.47 	"/>
	<polygon style="fill:#DFDFDF;" points="358.405,0 347.061,255.968 380.645,392.882 402.27,356.998 402.27,0 	"/>
</g>
<polygon style="fill:#F1F1F1;" points="244.389,78.817 238.097,245.77 254.628,368.849 269.71,340.303 269.71,78.817 "/>
<polygon style="fill:#0079CE;" points="512,236.179 384,304.751 384,236.179 256,304.751 224.628,392.882 256,512 512,512 "/>
<polygon style="fill:#288FD9;" points="256,236.179 128,304.751 128,236.179 0,304.751 0,512 256,512 256,458.099 245.543,430.38 
	256,402.661 256,304.751 "/>
<polygon style="fill:#F39624;" points="256,402.661 186.651,402.661 165.736,430.38 186.651,458.099 256,458.099 "/>
<polygon style="fill:#F7C02D;" points="117.303,402.661 96.389,430.38 117.303,458.099 186.651,458.099 186.651,402.661 "/>
<rect x="47.957" y="402.662" style="fill:#FBE27B;" width="69.35" height="55.442"/>
</svg>