<?xml version="1.0" encoding="iso-8859-1"?>
<!-- Uploaded to: SVG Repo, www.svgrepo.com, Generator: SVG Repo Mixer Tools -->
<svg version="1.1" id="Layer_1" xmlns="http://www.w3.org/2000/svg" xmlns:xlink="http://www.w3.org/1999/xlink" 
	 viewBox="0 0 512 512" xml:space="preserve">
<path style="fill:#FB9DA4;" d="M504.026,192.375C475.738,81.771,375.42,0,256,0C114.616,0,0,114.616,0,256
	c0,119.42,81.771,219.737,192.375,248.026L504.026,192.375z"/>
<path style="fill:#F97D85;" d="M122.435,434.087l69.94,69.94C212.718,509.23,234.035,512,256,512c141.385,0,256-114.616,256-256
	c0-21.965-2.77-43.282-7.974-63.625L389.565,77.913L122.435,434.087z"/>
<path style="fill:#FBD867;" d="M367.304,155.826v-44.522L233.739,89.043v333.913l133.565-22.261v-44.522
	c0-41.656-22.384-78.022-55.652-97.481v-5.385C344.92,233.848,367.304,197.482,367.304,155.826z"/>
<g>
	<path style="fill:#FEF2CC;" d="M144.696,111.304v44.522c0,41.656,22.384,78.022,55.652,97.481v5.385
		c-33.268,19.459-55.652,55.826-55.652,97.481v44.522H256V111.304H144.696z"/>
	<path style="fill:#FEF2CC;" d="M345.043,155.826v-22.261H256L222.609,372.87l122.435-16.696c0-37.811-23.054-70.246-55.652-83.67
		v-33.01C321.989,226.072,345.043,193.637,345.043,155.826z"/>
</g>
<path style="fill:#FFFFFF;" d="M166.957,133.565v22.261c0,37.811,23.054,70.246,55.652,83.669v33.01
	c-32.598,13.423-55.652,45.859-55.652,83.67L256,372.87V133.565H166.957z"/>
<path style="fill:#F97D85;" d="M322.783,356.174c0-33.489-24.11-61.361-55.652-66.753V189.217h22.261L256,155.826l-11.13,178.087
	L256,378.435h89.043v-22.261H322.783z"/>
<path style="fill:#FB9DA4;" d="M222.609,189.217h22.261v100.204c-31.543,5.39-55.652,33.263-55.652,66.753h-22.261v22.261H256
	V155.826L222.609,189.217z"/>
<rect x="211.478" y="333.913" style="fill:#F97D85;" width="22.261" height="22.261"/>
<polygon style="fill:#A72B1A;" points="256,400.696 233.739,417.391 256,434.087 389.565,434.087 389.565,400.696 "/>
<rect x="122.435" y="400.696" style="fill:#C92B31;" width="133.565" height="33.391"/>
<polygon style="fill:#A72B1A;" points="256,77.913 233.739,94.609 256,111.304 389.565,111.304 389.565,77.913 "/>
<rect x="122.435" y="77.913" style="fill:#C92B31;" width="133.565" height="33.391"/>
</svg>