<?xml version="1.0" encoding="iso-8859-1"?>
<!-- Uploaded to: SVG Repo, www.svgrepo.com, Generator: SVG Repo Mixer Tools -->
<svg height="800px" width="800px" version="1.1" id="Layer_1" xmlns="http://www.w3.org/2000/svg" xmlns:xlink="http://www.w3.org/1999/xlink" 
	 viewBox="0 0 512 512" xml:space="preserve">
<path style="fill:#53CAF9;" d="M315.812,116.604l-6.55-22.279c-0.975-3.316-4.018-5.594-7.475-5.594h-91.573
	c-3.456,0-6.5,2.277-7.475,5.594l-6.55,22.279c-0.691,2.355-0.234,4.9,1.237,6.865c1.471,1.966,3.782,3.123,6.239,3.123h104.672
	c2.456,0,4.767-1.158,6.239-3.123C316.045,121.503,316.503,118.959,315.812,116.604z"/>
<path style="opacity:0.15;fill:#231F20;enable-background:new    ;" d="M216.349,123.469c-1.471-1.966-1.93-4.51-1.237-6.865
	l6.549-22.279c0.975-3.316,4.018-5.594,7.475-5.594h-18.923c-3.456,0-6.5,2.277-7.475,5.594l-6.55,22.279
	c-0.691,2.355-0.234,4.9,1.237,6.865c1.471,1.966,3.782,3.123,6.239,3.123h18.922C220.131,126.592,217.819,125.434,216.349,123.469z
	"/>
<path style="fill:#547475;" d="M512,173.3v-36.305c0-10.64-8.625-19.266-19.267-19.266H19.267C8.627,117.729,0,126.355,0,136.995
	v267.007c0,10.641,8.627,19.267,19.267,19.267h473.466c10.642,0,19.267-8.626,19.267-19.267V198.899"/>
<path style="opacity:0.15;fill:#231F20;enable-background:new    ;" d="M17.809,404.003V136.996c0-10.64,8.627-19.266,19.267-19.266
	H19.267C8.627,117.73,0,126.356,0,136.996v267.007c0,10.641,8.627,19.267,19.267,19.267h17.809
	C26.436,423.268,17.809,414.642,17.809,404.003z"/>
<g>
	<path style="fill:#8AACAD;" d="M130.548,357.703c-17.221-24.727-27.317-54.787-27.317-87.205c0-84.372,68.398-152.77,152.77-152.77
		c84.373,0,152.769,68.398,152.769,152.77c0,84.373-68.395,152.77-152.769,152.77c-42.921,0-81.707-17.7-109.459-46.199"/>
	<path style="fill:#8AACAD;" d="M381.451,357.703c17.222-24.727,27.317-54.787,27.317-87.205c0-84.372-68.397-152.77-152.769-152.77
		c-84.373,0-152.77,68.398-152.77,152.77c0,84.373,68.397,152.77,152.77,152.77c42.92,0,81.707-17.7,109.459-46.199"/>
</g>
<circle style="fill:#BFD8D7;" cx="256" cy="270.503" r="112.417"/>
<circle style="fill:#384949;" cx="256" cy="270.503" r="86.817"/>
<path style="opacity:0.15;fill:#231F20;enable-background:new    ;" d="M186.991,270.499c0-44.941,34.149-81.907,77.913-86.365
	c-2.927-0.298-5.898-0.452-8.904-0.452c-47.947,0-86.817,38.87-86.817,86.817c0,47.949,38.871,86.817,86.817,86.817
	c3.006,0,5.977-0.154,8.904-0.452C221.141,352.406,186.991,315.441,186.991,270.499z"/>
<circle style="fill:#53CAF9;" cx="256" cy="270.503" r="47.829"/>
<g>
	<path style="fill:#8AACAD;" d="M74.537,164.995H39.818c-4.611,0-8.348-3.738-8.348-8.348c0-4.61,3.736-8.348,8.348-8.348h34.718
		c4.61,0,8.348,3.738,8.348,8.348C82.884,161.258,79.146,164.995,74.537,164.995z"/>
	<path style="fill:#8AACAD;" d="M99.537,165.001c-2.193,0-4.34-0.902-5.899-2.449c-1.558-1.558-2.449-3.706-2.449-5.899
		c0-2.204,0.89-4.352,2.449-5.91c1.547-1.547,3.706-2.438,5.899-2.438c2.203,0,4.352,0.89,5.91,2.438
		c1.548,1.558,2.438,3.706,2.438,5.91c0,2.193-0.89,4.341-2.438,5.899C103.889,164.099,101.74,165.001,99.537,165.001z"/>
</g>
</svg>