<?xml version="1.0" encoding="iso-8859-1"?>
<!-- Uploaded to: SVG Repo, www.svgrepo.com, Generator: SVG Repo Mixer Tools -->
<!DOCTYPE svg PUBLIC "-//W3C//DTD SVG 1.1//EN" "http://www.w3.org/Graphics/SVG/1.1/DTD/svg11.dtd">
<svg fill="#000000" version="1.1" id="Capa_1" xmlns="http://www.w3.org/2000/svg" xmlns:xlink="http://www.w3.org/1999/xlink" 
	 width="800px" height="800px" viewBox="0 0 238.369 238.369"
	 xml:space="preserve">
<g>
	<g>
		<path d="M180.498,8.834C176.631,3.956,168.428,0,162.193,0H76.175c-6.229,0-14.429,3.956-18.3,8.834L9.864,69.25
			c-3.876,4.877-7.021,13.88-7.021,20.112v137.725c0,6.229,5.054,11.283,11.283,11.283h210.118c6.229,0,11.283-5.054,11.283-11.283
			V89.366c0-6.231-3.144-15.234-7.011-20.111L180.498,8.834z M149.725,212.282h-37.117c-1.462,0-2.651-1.191-2.651-2.651
			c0-1.465,1.188-2.651,2.651-2.651h37.117c1.461,0,2.651,1.187,2.651,2.651C152.376,211.102,151.186,212.282,149.725,212.282z
			 M183.207,58.104c1.17-0.88,2.827-0.637,3.702,0.541l22.209,29.735c0.87,1.17,0.632,2.833-0.539,3.708
			c-0.481,0.354-1.035,0.528-1.59,0.528c-0.802,0-1.604-0.365-2.117-1.064l-22.209-29.735
			C181.788,60.644,182.025,58.979,183.207,58.104z M216.14,209.631c0,1.46-1.191,2.651-2.651,2.651h-26.646
			c-1.461,0-2.651-1.191-2.651-2.651c0-1.465,1.19-2.651,2.651-2.651h23.995v-7.818c0-1.466,1.186-2.651,2.651-2.651
			c1.46,0,2.651,1.186,2.651,2.651V209.631z M216.14,162.044c0,1.466-1.191,2.651-2.651,2.651c-1.466,0-2.651-1.186-2.651-2.651
			v-37.116c0-1.461,1.186-2.651,2.651-2.651c1.46,0,2.651,1.19,2.651,2.651V162.044z"/>
	</g>
</g>
</svg>