<?xml version="1.0" encoding="iso-8859-1"?>
<!-- Uploaded to: SVG Repo, www.svgrepo.com, Generator: SVG Repo Mixer Tools -->
<svg height="800px" width="800px" version="1.1" id="Layer_1" xmlns="http://www.w3.org/2000/svg" xmlns:xlink="http://www.w3.org/1999/xlink" 
	 viewBox="0 0 512.001 512.001" xml:space="preserve">
<path style="fill:#547475;" d="M503.916,175.912v-35.159c0-10.305-8.354-18.658-18.658-18.658H26.741
	c-10.304,0-18.657,8.354-18.657,18.658v258.575c0,10.305,8.354,18.658,18.657,18.658h458.516c10.305,0,18.658-8.354,18.658-18.658
	V200.703"/>
<g style="opacity:0.2;">
	<path style="fill:#231F20;" d="M33.634,399.33V140.755c0-10.305,8.356-18.658,18.659-18.658H26.741
		c-10.304,0-18.657,8.354-18.657,18.658V399.33c0,10.305,8.354,18.658,18.657,18.658h25.551
		C41.989,417.987,33.634,409.633,33.634,399.33z"/>
</g>
<path style="fill:#8AACAD;" d="M134.509,354.493c-16.678-23.947-26.455-53.057-26.455-84.451
	c0-81.708,66.238-147.945,147.945-147.945s147.945,66.238,147.945,147.945c0,81.709-66.238,147.945-147.945,147.945
	c-41.566,0-79.128-17.141-106.002-44.74"/>
<circle style="fill:#BFD8D7;" cx="256" cy="270.046" r="108.867"/>
<circle style="fill:#384949;" cx="256" cy="270.046" r="84.076"/>
<g>
	<circle style="fill:#53CAF9;" cx="256" cy="270.046" r="46.318"/>
	<polygon style="fill:#53CAF9;" points="316.766,122.096 195.234,122.096 206.013,94.015 305.987,94.015 	"/>
</g>
<g style="opacity:0.2;">
	<path style="fill:#231F20;" d="M197.106,270.042c0-42.153,31.025-77.057,71.485-83.134c-4.109-0.618-8.312-0.942-12.592-0.942
		c-46.434,0-84.076,37.642-84.076,84.076c0,46.435,37.642,84.076,84.076,84.076c4.28,0,8.483-0.324,12.592-0.941
		C228.132,347.099,197.106,312.196,197.106,270.042z"/>
</g>
<g style="opacity:0.2;">
	<polygon style="fill:#231F20;" points="206.013,94.015 195.234,122.096 223.259,122.096 234.038,94.015 	"/>
</g>
<g>
	<path style="fill:#231F20;" d="M503.916,183.997c4.466,0,8.084-3.62,8.084-8.084v-35.159c0-14.746-11.997-26.743-26.744-26.743
		H322.323l-8.788-22.894c-1.199-3.125-4.199-5.188-7.547-5.188h-99.975c-3.347,0-6.349,2.063-7.547,5.188l-8.788,22.894H26.741
		C11.996,114.012,0,126.008,0,140.755V399.33c0,14.746,11.996,26.743,26.741,26.743h458.516c14.747,0,26.744-11.996,26.744-26.743
		V200.703c0-4.465-3.618-8.084-8.084-8.084c-4.466,0-8.084,3.62-8.084,8.084v198.626c0,5.83-4.744,10.574-10.575,10.574H325.109
		c51.459-25.531,86.919-78.629,86.919-139.861s-35.461-114.33-86.919-139.861h160.148c5.83,0,10.575,4.743,10.575,10.574v35.159
		C495.832,180.377,499.45,183.997,503.916,183.997z M211.568,102.099h88.863l4.572,11.913h-98.009L211.568,102.099z
		 M395.861,270.042c0,77.12-62.741,139.861-139.861,139.861c-38.064,0-73.653-15.022-100.211-42.296
		c-3.114-3.198-8.232-3.266-11.432-0.152c-3.199,3.115-3.266,8.233-0.152,11.432c12.525,12.864,26.856,23.272,42.429,31.015H26.741
		c-5.829,0-10.573-4.743-10.573-10.574V140.755c0-5.83,4.743-10.574,10.573-10.574h160.149
		c-51.459,25.531-86.919,78.629-86.919,139.861c0,32.059,9.649,62.859,27.906,89.071c2.551,3.664,7.589,4.565,11.253,2.014
		s4.565-7.591,2.014-11.253c-16.358-23.488-25.004-51.092-25.004-79.831c0-77.119,62.741-139.861,139.861-139.861
		S395.861,192.923,395.861,270.042z"/>
	<path style="fill:#231F20;" d="M139.048,270.042c0,64.487,52.464,116.952,116.952,116.952s116.952-52.464,116.952-116.952
		S320.487,153.09,256,153.09S139.048,205.555,139.048,270.042z M356.783,270.042c0,55.572-45.211,100.783-100.783,100.783
		s-100.783-45.211-100.783-100.783S200.428,169.259,256,169.259S356.783,214.47,356.783,270.042z"/>
	<path style="fill:#231F20;" d="M163.84,270.042c0,50.817,41.344,92.16,92.16,92.16c50.817,0,92.16-41.343,92.16-92.16
		s-41.343-92.16-92.16-92.16C205.184,177.882,163.84,219.224,163.84,270.042z M331.992,270.042c0,41.902-34.09,75.992-75.992,75.992
		s-75.992-34.09-75.992-75.992S214.098,194.05,256,194.05S331.992,228.14,331.992,270.042z"/>
	<path style="fill:#231F20;" d="M201.598,270.042c0,29.998,24.405,54.402,54.402,54.402s54.402-24.405,54.402-54.402
		S285.998,215.64,256,215.64S201.598,240.044,201.598,270.042z M294.234,270.042c0,21.083-17.151,38.234-38.234,38.234
		s-38.234-17.151-38.234-38.234c0-21.081,17.151-38.233,38.234-38.233S294.234,248.96,294.234,270.042z"/>
	<path style="fill:#231F20;" d="M80.268,151.702H46.644c-4.466,0-8.084,3.62-8.084,8.084c0,4.465,3.618,8.084,8.084,8.084h33.623
		c4.466,0,8.084-3.62,8.084-8.084C88.351,155.321,84.732,151.702,80.268,151.702z"/>
	<path style="fill:#231F20;" d="M110.196,165.504c1.508-1.509,2.37-3.589,2.37-5.713c0-2.134-0.862-4.215-2.37-5.724
		c-1.499-1.498-3.589-2.371-5.714-2.371c-2.133,0-4.213,0.873-5.724,2.371c-1.498,1.509-2.361,3.589-2.361,5.724
		c0,2.123,0.863,4.204,2.361,5.713c1.509,1.498,3.6,2.361,5.724,2.361C106.607,167.865,108.687,167.003,110.196,165.504z"/>
</g>
</svg>