<?xml version="1.0" encoding="iso-8859-1"?>
<!-- Uploaded to: SVG Repo, www.svgrepo.com, Generator: SVG Repo Mixer Tools -->
<svg version="1.1" id="Layer_1" xmlns="http://www.w3.org/2000/svg" xmlns:xlink="http://www.w3.org/1999/xlink" 
	 viewBox="0 0 480 480" xml:space="preserve">
<path style="fill:#8E6725;" d="M136,296v16h-32v-32H88c-8.84,0-16,7.16-16,16v16H40v-16c0-8.84-7.16-16-16-16H8v192h128l24-192h-8
	C143.16,280,136,287.16,136,296z"/>
<g>
	<path style="fill:#A58551;" d="M40,360H16c-4.416,0-8-3.584-8-8s3.584-8,8-8h24c4.416,0,8,3.584,8,8S44.416,360,40,360z"/>
	<path style="fill:#A58551;" d="M144,360h-24c-4.416,0-8-3.584-8-8s3.584-8,8-8h24c4.416,0,8,3.584,8,8S148.416,360,144,360z"/>
	<path style="fill:#A58551;" d="M88,360H72c-4.416,0-8-3.584-8-8s3.584-8,8-8h16c4.416,0,8,3.584,8,8S92.416,360,88,360z"/>
	<path style="fill:#A58551;" d="M64,400H48c-4.416,0-8-3.584-8-8s3.584-8,8-8h16c4.416,0,8,3.584,8,8S68.416,400,64,400z"/>
	<path style="fill:#A58551;" d="M104,432H88c-4.416,0-8-3.584-8-8s3.584-8,8-8h16c4.416,0,8,3.584,8,8S108.416,432,104,432z"/>
</g>
<path style="fill:#8E6725;" d="M344,296v16h32v-32h16c8.84,0,16,7.16,16,16v16h32v-16c0-8.84,7.16-16,16-16h16v192H344l-24-192h8
	C336.84,280,344,287.16,344,296z"/>
<g>
	<path style="fill:#A58551;" d="M464,368h-24c-4.416,0-8-3.584-8-8s3.584-8,8-8h24c4.416,0,8,3.584,8,8S468.416,368,464,368z"/>
	<path style="fill:#A58551;" d="M360,368h-24c-4.416,0-8-3.584-8-8s3.584-8,8-8h24c4.416,0,8,3.584,8,8S364.416,368,360,368z"/>
	<path style="fill:#A58551;" d="M408,368h-16c-4.416,0-8-3.584-8-8s3.584-8,8-8h16c4.416,0,8,3.584,8,8S412.416,368,408,368z"/>
	<path style="fill:#A58551;" d="M432,408h-16c-4.416,0-8-3.584-8-8s3.584-8,8-8h16c4.416,0,8,3.584,8,8S436.416,408,432,408z"/>
	<path style="fill:#A58551;" d="M392,440h-16c-4.416,0-8-3.584-8-8s3.584-8,8-8h16c4.416,0,8,3.584,8,8S396.416,440,392,440z"/>
</g>
<polygon style="fill:#BD8931;" points="344,472 136,472 168,216 312,216 "/>
<polygon style="fill:#8E6725;" points="312,216 168,216 166,232 314,232 "/>
<path style="fill:#BD8931;" d="M320,136v16h-32v-16c0-8.84-7.16-16-16-16h-16v32h-32v-32h-16c-8.84,0-16,7.16-16,16v16h-32v-16
	c0-8.84-7.16-16-16-16h-16l13.768,82.632c1.288,7.712,7.968,13.368,15.784,13.368H322.44c7.824,0,14.496-5.656,15.784-13.368
	L352,120h-16C327.16,120,320,127.16,320,136z"/>
<path style="fill:#FCB641;" d="M240,72h-32V24c0-8.84,7.16-16,16-16h16V72z"/>
<rect x="240" y="8" style="fill:#E65039;" width="32" height="64"/>
<g>
	<path style="fill:#FCB641;" d="M288,72h-16V8h32v48C304,64.84,296.84,72,288,72z"/>
	<rect x="208" y="64" style="fill:#FCB641;" width="16" height="56"/>
</g>
<g>
	<path style="fill:#8E6725;" d="M240,352L240,352c-22.088,0-40,17.912-40,40v80h80v-80C280,369.912,262.088,352,240,352z"/>
	<path style="fill:#8E6725;" d="M248,272h-16c-4.416,0-8-3.584-8-8s3.584-8,8-8h16c4.416,0,8,3.584,8,8S252.416,272,248,272z"/>
	<path style="fill:#8E6725;" d="M208,304h-16c-4.416,0-8-3.584-8-8s3.584-8,8-8h16c4.416,0,8,3.584,8,8S212.416,304,208,304z"/>
	<path style="fill:#8E6725;" d="M288,304h-16c-4.416,0-8-3.584-8-8s3.584-8,8-8h16c4.416,0,8,3.584,8,8S292.416,304,288,304z"/>
</g>
<g>
	<path style="fill:#BD8931;" d="M40,32H8c-4.416,0-8-3.584-8-8s3.584-8,8-8h32c4.416,0,8,3.584,8,8S44.416,32,40,32z"/>
	<path style="fill:#BD8931;" d="M88,32H72c-4.416,0-8-3.584-8-8s3.584-8,8-8h16c4.416,0,8,3.584,8,8S92.416,32,88,32z"/>
	<path style="fill:#BD8931;" d="M424,88h-32c-4.416,0-8-3.584-8-8s3.584-8,8-8h32c4.416,0,8,3.584,8,8S428.416,88,424,88z"/>
	<path style="fill:#BD8931;" d="M472,88h-16c-4.416,0-8-3.584-8-8s3.584-8,8-8h16c4.416,0,8,3.584,8,8S476.416,88,472,88z"/>
</g>
</svg>