<?xml version="1.0" encoding="iso-8859-1"?>
<!-- Uploaded to: SVG Repo, www.svgrepo.com, Generator: SVG Repo Mixer Tools -->
<svg xmlns="http://www.w3.org/2000/svg" xmlns:xlink="http://www.w3.org/1999/xlink" version="1.1" id="Layer_1"  viewBox="0 0 496.675 496.675" xml:space="preserve" width="512" height="512">
<g>
	<path style="fill:#FFCF9B;" d="M190.471,138.469v335.26c0,9.585-7.842,17.427-17.427,17.427H49.87   c-9.585,0-17.427-7.842-17.427-17.427v-335.26L190.471,138.469z"/>
	<path style="fill:#FF9F35;" d="M25.576,120.6V21.479c0-10.418,8.523-18.941,18.941-18.941h133.879   c10.418,0,18.941,8.523,18.941,18.941V120.6L25.576,120.6z"/>
	<path style="fill:#A5173F;" d="M214.078,138.469H10.93c-6.011,0-10.93-4.918-10.93-10.93l0-5.35c0-6.011,4.918-10.93,10.93-10.93   h203.148c6.011,0,10.93,4.918,10.93,10.93v5.35C225.008,133.551,220.089,138.469,214.078,138.469z"/>
	<g>
		<path style="fill:#FF9F35;" d="M62.884,275.432c-4.142,0-7.5-3.357-7.5-7.5v-87.359c0-4.143,3.358-7.5,7.5-7.5s7.5,3.357,7.5,7.5    v87.359C70.384,272.074,67.026,275.432,62.884,275.432z"/>
	</g>
	<g>
		<path style="fill:#FF9F35;" d="M62.884,462.742c-4.142,0-7.5-3.357-7.5-7.5V306.469c0-4.143,3.358-7.5,7.5-7.5s7.5,3.357,7.5,7.5    v148.773C70.384,459.385,67.026,462.742,62.884,462.742z"/>
	</g>
	<path style="fill:#FF9F35;" d="M430.702,302.815v165.322c0,14.3-11.7,26-26,26H274.45c-14.3,0-26-11.7-26-26V302.815H430.702z"/>
	<path style="fill:#A5173F;" d="M438.312,302.815h-193.97c-10.379,0-18.871-8.492-18.871-18.871v0   c0-10.379,8.492-18.871,18.871-18.871h193.97c10.379,0,18.871,8.492,18.871,18.871v0   C457.183,294.323,448.691,302.815,438.312,302.815z"/>
	<g>
		<path style="fill:#FF9F35;" d="M442.13,429.737h-18.773c-4.142,0-7.5-3.357-7.5-7.5s3.358-7.5,7.5-7.5h18.773    c21.805,0,39.545-17.74,39.545-39.545v-8.772c0-4.836-3.935-8.771-8.771-8.771h-49.547c-4.142,0-7.5-3.357-7.5-7.5    s3.358-7.5,7.5-7.5h49.547c13.107,0,23.771,10.663,23.771,23.771v8.772C496.675,405.268,472.206,429.737,442.13,429.737z"/>
	</g>
	<g>
		<path style="fill:#D8D7D9;" d="M323.527,247.691c-2.376,0-4.712-1.126-6.169-3.226l-10.899-15.708    c-8.202-11.82-7.717-27.344,1.207-38.63c4.237-5.357,4.953-12.744,1.824-18.817l-7.356-14.279    c-5.394-10.471-4.686-23.064,1.848-32.864l4.563-6.847c3.712-5.566,3.895-12.876,0.468-18.622    c-2.122-3.557-0.958-8.161,2.599-10.283c3.558-2.122,8.161-0.958,10.283,2.6c6.374,10.684,6.032,24.275-0.869,34.626l-4.563,6.847    c-3.514,5.271-3.895,12.043-0.994,17.675l7.356,14.279c5.817,11.292,4.485,25.026-3.393,34.99    c-4.799,6.069-5.06,14.418-0.649,20.775l10.9,15.708c2.361,3.403,1.517,8.076-1.887,10.438    C326.492,247.256,325.002,247.691,323.527,247.691z"/>
	</g>
	<g>
		<path style="fill:#D8D7D9;" d="M367.073,247.691c-2.376,0-4.712-1.126-6.169-3.226l-10.899-15.708    c-8.202-11.819-7.717-27.344,1.206-38.629c4.237-5.359,4.954-12.745,1.825-18.818l-7.356-14.279    c-5.394-10.472-4.686-23.064,1.848-32.864l4.563-6.847c3.711-5.566,3.895-12.876,0.468-18.622    c-2.122-3.557-0.958-8.161,2.599-10.283c3.558-2.122,8.161-0.958,10.283,2.6c6.373,10.684,6.032,24.275-0.869,34.626l-4.563,6.847    c-3.514,5.271-3.895,12.043-0.994,17.675l7.356,14.279c5.817,11.292,4.485,25.026-3.393,34.99    c-4.799,6.069-5.06,14.418-0.649,20.775l10.9,15.708c2.361,3.403,1.517,8.076-1.887,10.438    C370.038,247.256,368.547,247.691,367.073,247.691z"/>
	</g>
	<rect x="248.45" y="353.704" style="fill:#FFCF9B;" width="182.252" height="64.329"/>
	<path style="opacity:0.32;fill:#A5173F;" d="M409.702,302.815v23.506v64.329v50.104c0,14.3-11.7,26-26,26H253.45   c-1.71,0-3.38-0.172-5-0.491v1.873c0,14.3,11.7,26,26,26h130.252c14.3,0,26-11.7,26-26v-50.104v-64.329v-50.889H409.702z"/>
	<rect x="25.576" y="69.751" style="opacity:0.32;fill:#A5173F;" width="171.761" height="41.508"/>
	<path style="opacity:0.32;fill:#A5173F;" d="M158.102,115.875h-6.544v335.26c0,9.584-7.842,17.427-17.427,17.427H32.786v5.168   c0,9.585,7.842,17.427,17.427,17.427h123.175c9.585,0,17.427-7.842,17.427-17.427v-335.26h23.606c6.011,0,10.93-4.918,10.93-10.93   v-5.35c0-6.011-4.918-10.93-10.93-10.93h-16.74V69.751V21.479c0-10.418-8.523-18.941-18.941-18.941h-20.315v44.619v41.508   L158.102,115.875z"/>
	<rect x="430.702" y="342.649" style="opacity:0.32;fill:#A5173F;" width="15" height="15"/>
	<rect x="430.702" y="414.737" style="opacity:0.32;fill:#A5173F;" width="15" height="15"/>
</g>















</svg>