<?xml version="1.0" encoding="iso-8859-1"?>
<!-- Uploaded to: SVG Repo, www.svgrepo.com, Generator: SVG Repo Mixer Tools -->
<svg height="800px" width="800px" version="1.1" id="Layer_1" xmlns="http://www.w3.org/2000/svg" xmlns:xlink="http://www.w3.org/1999/xlink" 
	 viewBox="0 0 511.999 511.999" xml:space="preserve">
<path style="fill:#D35B38;" d="M322.938,501.801H189.059c-16.562,0-29.989-13.426-29.989-29.989V162.285
	c0-16.562,13.426-29.989,29.989-29.989h133.879c16.563,0,29.989,13.426,29.989,29.989v309.527
	C352.927,488.375,339.5,501.801,322.938,501.801z"/>
<path style="fill:#CCCCCC;" d="M286.523,10.199h-61.048c-15.971,0-28.918,12.947-28.918,28.918v93.179H315.44V39.117
	C315.44,23.146,302.494,10.199,286.523,10.199z"/>
<g>
	<path style="fill:#4D3D36;" d="M325.64,122.199v-15.798c17.388-3.501,30.524-18.892,30.524-37.295
		c0-18.655-13.501-34.206-31.241-37.424C321.439,13.658,305.549,0,286.523,0h-61.048c-21.569,0-39.117,17.548-39.117,39.117v83.082
		c-20.903,1.396-37.485,18.836-37.485,40.086v309.526c0,22.161,18.028,40.188,40.188,40.188h133.879
		c22.16,0,40.188-18.028,40.188-40.188V162.285C363.126,141.035,346.543,123.595,325.64,122.199z M206.756,108.223h98.487v13.875
		h-98.487L206.756,108.223L206.756,108.223z M335.765,69.106c0,7.038-4.151,13.11-10.126,15.94V53.165
		C331.614,55.996,335.765,62.067,335.765,69.106z M225.474,20.398h61.048c10.322,0,18.719,8.396,18.719,18.719v48.708h-98.487
		V39.117C206.756,28.794,215.153,20.398,225.474,20.398z M322.938,142.496c10.912,0,19.789,8.877,19.789,19.788v309.526
		c0,10.912-8.877,19.789-19.79,19.789h-8.008v-16.577c0-5.632-4.566-10.199-10.199-10.199c-5.633,0-10.199,4.567-10.199,10.199
		v16.578h-27.798v-16.577c0-5.632-4.566-10.199-10.199-10.199s-10.199,4.567-10.199,10.199v16.577h-27.798v-16.577
		c0-5.632-4.566-10.199-10.199-10.199c-5.633,0-10.199,4.567-10.199,10.199v16.577h-9.079c-10.912,0-19.79-8.877-19.79-19.79
		V162.285c0-10.911,8.877-19.788,19.79-19.788L322.938,142.496L322.938,142.496z"/>
	<path style="fill:#4D3D36;" d="M304.73,429.482c-5.633,0-10.199,4.567-10.199,10.199v4.284c0,5.632,4.566,10.199,10.199,10.199
		s10.199-4.567,10.199-10.199v-4.284C314.929,434.049,310.363,429.482,304.73,429.482z"/>
</g>
</svg>