<?xml version="1.0" encoding="iso-8859-1"?>
<!-- Uploaded to: SVG Repo, www.svgrepo.com, Generator: SVG Repo Mixer Tools -->
<!DOCTYPE svg PUBLIC "-//W3C//DTD SVG 1.1//EN" "http://www.w3.org/Graphics/SVG/1.1/DTD/svg11.dtd">
<svg fill="#000000" height="800px" width="800px" version="1.1" id="Capa_1" xmlns="http://www.w3.org/2000/svg" xmlns:xlink="http://www.w3.org/1999/xlink" 
	 viewBox="0 0 55.96 55.96" xml:space="preserve">
<path d="M48.126,28.677c1.221-4.513,0.524-8.367-1.96-10.852c-1.662-1.663-3.994-2.542-6.742-2.542c-2.561,0-5.349,0.743-8.12,2.107
	c0.653-1.331,1.182-2.67,1.541-3.995c1.221-4.514,0.524-8.367-1.96-10.852c-1.662-1.663-3.994-2.542-6.742-2.542
	c-5.131,0-11.174,2.98-16.166,7.973c-3.65,3.65-6.274,7.932-7.39,12.057c-1.221,4.514-0.524,8.367,1.96,10.852
	c1.662,1.663,3.994,2.542,6.742,2.542c2.554,0,5.334-0.74,8.098-2.097c-2.847,5.806-2.886,11.511,0.44,14.836
	c1.663,1.663,3.995,2.542,6.743,2.542c5.131,0,11.174-2.98,16.165-7.972C44.386,37.084,47.011,32.801,48.126,28.677z M5.375,28.055
	c-1.928-1.928-1.408-5.2-0.928-6.979c0.937-3.46,3.194-7.108,6.357-10.272C15,6.608,20.111,4.002,24.143,4.002
	c1.688,0,3.005,0.461,3.914,1.37c1.928,1.928,1.408,5.2,0.928,6.979c-0.937,3.46-3.194,7.108-6.357,10.272
	c-4.195,4.195-9.306,6.801-13.338,6.801C7.602,29.425,6.284,28.964,5.375,28.055z M55.888,33.63
	c-0.189,1.044-0.75,2.075-1.576,2.901c-1.047,1.047-2.391,1.648-3.688,1.648c-0.24,0-0.475-0.023-0.703-0.065L38.105,49.932
	c0.253,1.43-0.278,3.085-1.57,4.378c-1.048,1.048-2.392,1.648-3.688,1.648c-0.997,0-1.911-0.364-2.571-1.025
	c-1.579-1.58-1.306-4.329,0.624-6.259c1.048-1.048,2.393-1.648,3.688-1.648c0.24,0,0.474,0.023,0.703,0.065l11.824-11.824
	c-0.083-0.469-0.106-0.96-0.013-1.47c0.189-1.044,0.75-2.074,1.576-2.901c1.047-1.047,2.391-1.648,3.688-1.648
	c0.997,0,1.911,0.364,2.571,1.025C55.777,31.112,56.123,32.337,55.888,33.63z"/>
</svg>