<?xml version="1.0" ?>
<!-- Uploaded to: SVG Repo, www.svgrepo.com, Generator: SVG Repo Mixer Tools -->
<svg width="800px" height="800px" viewBox="0 0 512 512" id="Layer_1" version="1.1" xml:space="preserve" xmlns="http://www.w3.org/2000/svg" xmlns:xlink="http://www.w3.org/1999/xlink">
<style type="text/css">
	.st0{fill:#3B4652;}
	.st1{fill:#2B79C2;}
</style>
<g>
<path class="st0" d="M93,435.7c-8.9,0-16.9-5.6-19.8-14.1c-1.9-5.3-1.5-11,0.9-16c2.4-5.1,6.7-8.9,12-10.7l39.4-13.8   c-8.9-9-21.3-14.6-35-14.6c-27.2,0-49.3,22.1-49.3,49.3c0,27.2,22.1,49.3,49.3,49.3c25.6,0,46.6-19.5,49-44.4L100,434.5   C97.7,435.3,95.4,435.7,93,435.7z"/>
<path class="st0" d="M470.4,138.4c-1.2-3.7-5.1-5.7-8.8-4.5l-78.5,25.4c-2.9,0.9-4.8,3.6-4.8,6.7v56.6H69.9l87.4,162.2l-66.7,23.4   c-3.6,1.3-5.6,5.3-4.3,8.9c1,2.9,3.7,4.7,6.6,4.7c0.8,0,1.6-0.1,2.3-0.4l165.9-58.2L380.8,459c1.3,1,2.8,1.5,4.4,1.5   c1,0,2.1-0.2,3-0.7c2.4-1.2,4-3.6,4-6.3V323.7v-11.5V171l73.7-23.8C469.6,146,471.6,142,470.4,138.4z M378.2,438.9l-101.4-81.3   l101.4-35.6v1.6V438.9z"/>
<path class="st1" d="M364.2,208.5v-23.6c-7.4-5-16.3-7.9-18.4-18.2c-1.7-8.2,2.7-17.2-0.7-24.8c-5.6-12.4-25.9-10.2-33.3-21.6   c-4.5-6.9-2.3-16-2.5-24.2c-0.2-12.6-6.5-25-16.6-32.5c-9.4-7.1-21.3-9.7-32.8-12.3c-10.8-2.4-21.7-4.7-32.7-4.2   c-10.5,0.5-20.9,3.7-29.9,9.2c-5.3,3.2-10.2,7.3-16.2,8.8c-8.5,2.2-17.4-1.2-26-2.7c-14.6-2.5-30.1,0.4-42.7,8.1   c-7,4.3-13.5,10.5-15.4,18.5c-1.7,7.2,0.4,14.7,0.9,22C99,129.3,90.3,146,85.3,163c-3.4,11.6-2.3,29.5-0.1,45.5H364.2z"/>
</g>
</svg>