<?xml version="1.0" encoding="iso-8859-1"?>
<!-- Uploaded to: SVG Repo, www.svgrepo.com, Generator: SVG Repo Mixer Tools -->
<svg version="1.1" id="Layer_1" xmlns="http://www.w3.org/2000/svg" xmlns:xlink="http://www.w3.org/1999/xlink" 
	 viewBox="0 0 512 512" xml:space="preserve">
<path style="fill:#57545C;" d="M93.501,72.837l-65.36,10.496C9.907,86.261-2.501,103.416,0.428,121.65l11.623,72.376l495.844-79.627
	l-11.624-72.376c-2.928-18.234-20.084-30.642-38.317-27.713L165.973,61.198L93.501,72.837z"/>
<path style="fill:#FFCD00;" d="M1.922,130.96l10.128,63.066l495.844-79.627l-10.103-62.916
	C432.116,61.929,65.988,120.188,1.922,130.96z"/>
<rect x="9.803" y="194.031" style="fill:#3E3B43;" width="502.196" height="304.087"/>
<polygon style="fill:#2F2D30;" points="461.621,194.026 461.621,447.735 9.803,447.735 9.803,498.113 512,498.113 512,194.026 "/>
<rect x="9.803" y="194.031" style="fill:#FFCD00;" width="502.196" height="53.375"/>
<g>
	<polygon style="fill:#CCA400;" points="149.522,247.397 202.074,194.026 102.277,194.026 49.725,247.397 	"/>
	<polygon style="fill:#CCA400;" points="326.314,247.397 378.865,194.026 279.069,194.026 226.517,247.397 	"/>
	<polygon style="fill:#CCA400;" points="416.149,247.397 468.701,194.026 512,194.026 512,247.397 	"/>
	<polygon style="fill:#CCA400;" points="51.467,187.696 94.802,115.851 1.922,130.96 12.051,194.026 	"/>
	<polygon style="fill:#CCA400;" points="238.442,157.36 281.515,85.946 193.327,100.044 150.001,171.872 	"/>
	<polygon style="fill:#CCA400;" points="421.333,128.3 464.468,56.785 370.362,71.774 327.144,143.426 	"/>
</g>
<g>
	<path style="fill:#D7D5D9;" d="M455.344,343.092H192.036c-4.329,0-7.837-3.509-7.837-7.837s3.508-7.837,7.837-7.837h263.308
		c4.329,0,7.837,3.509,7.837,7.837S459.672,343.092,455.344,343.092z"/>
	<path style="fill:#D7D5D9;" d="M120.873,343.092H57.115c-4.329,0-7.837-3.509-7.837-7.837s3.508-7.837,7.837-7.837h63.758
		c4.329,0,7.837,3.509,7.837,7.837S125.202,343.092,120.873,343.092z"/>
	<path style="fill:#D7D5D9;" d="M455.344,405.493H57.115c-4.329,0-7.837-3.509-7.837-7.837s3.508-7.837,7.837-7.837h398.229
		c4.329,0,7.837,3.509,7.837,7.837S459.672,405.493,455.344,405.493z"/>
	<path style="fill:#D7D5D9;" d="M260.902,461.328c-4.329,0-7.837-3.509-7.837-7.837v-55.836c0-4.328,3.508-7.837,7.837-7.837
		c4.329,0,7.837,3.509,7.837,7.837v55.836C268.739,457.819,265.23,461.328,260.902,461.328z"/>
</g>
</svg>