<svg xmlns="http://www.w3.org/2000/svg" xmlns:xlink="http://www.w3.org/1999/xlink" version="1.1" width="256" height="256" viewBox="0 0 256 256" xml:space="preserve">

<defs>
</defs>
<g style="stroke: none; stroke-width: 0; stroke-dasharray: none; stroke-linecap: butt; stroke-linejoin: miter; stroke-miterlimit: 10; fill: none; fill-rule: nonzero; opacity: 1;" transform="translate(1.4065934065934016 1.4065934065934016) scale(2.81 2.81)" >
	<rect x="1" y="12.96" rx="0" ry="0" width="88" height="65.07" style="stroke: none; stroke-width: 1; stroke-dasharray: none; stroke-linecap: butt; stroke-linejoin: miter; stroke-miterlimit: 10; fill: rgb(222,255,244); fill-rule: nonzero; opacity: 1;" transform=" matrix(1 0 0 1 0 0) "/>
	<path d="M 89 79.036 H 1 c -0.552 0 -1 -0.447 -1 -1 V 12.964 c 0 -0.552 0.448 -1 1 -1 h 88 c 0.553 0 1 0.448 1 1 v 65.072 C 90 78.589 89.553 79.036 89 79.036 z M 2 77.036 h 86 V 13.964 H 2 V 77.036 z" style="stroke: none; stroke-width: 1; stroke-dasharray: none; stroke-linecap: butt; stroke-linejoin: miter; stroke-miterlimit: 10; fill: rgb(0,0,0); fill-rule: nonzero; opacity: 1;" transform=" matrix(1 0 0 1 0 0) " stroke-linecap="round" />
	<rect x="1" y="12.96" rx="0" ry="0" width="88" height="14" style="stroke: none; stroke-width: 1; stroke-dasharray: none; stroke-linecap: butt; stroke-linejoin: miter; stroke-miterlimit: 10; fill: rgb(63,178,151); fill-rule: nonzero; opacity: 1;" transform=" matrix(1 0 0 1 0 0) "/>
	<rect x="8.63" y="37.46" rx="0" ry="0" width="32.77" height="30" style="stroke: none; stroke-width: 1; stroke-dasharray: none; stroke-linecap: butt; stroke-linejoin: miter; stroke-miterlimit: 10; fill: rgb(255,255,255); fill-rule: nonzero; opacity: 1;" transform=" matrix(1 0 0 1 0 0) "/>
	<polygon points="41.4,51.47 34.41,45.78 23.91,60.73 16.79,55.21 8.63,67.46 41.4,67.46 " style="stroke: none; stroke-width: 1; stroke-dasharray: none; stroke-linecap: butt; stroke-linejoin: miter; stroke-miterlimit: 10; fill: rgb(78,229,193); fill-rule: nonzero; opacity: 1;" transform="  matrix(1 0 0 1 0 0) "/>
	<path d="M 89 27.962 H 1 c -0.552 0 -1 -0.448 -1 -1 V 12.964 c 0 -0.552 0.448 -1 1 -1 h 88 c 0.553 0 1 0.448 1 1 v 13.998 C 90 27.514 89.553 27.962 89 27.962 z M 2 25.962 h 86 V 13.964 H 2 V 25.962 z" style="stroke: none; stroke-width: 1; stroke-dasharray: none; stroke-linecap: butt; stroke-linejoin: miter; stroke-miterlimit: 10; fill: rgb(0,0,0); fill-rule: nonzero; opacity: 1;" transform=" matrix(1 0 0 1 0 0) " stroke-linecap="round" />
	<path d="M 59.873 20.963 H 8.63 c -0.552 0 -1 -0.448 -1 -1 s 0.448 -1 1 -1 h 51.243 c 0.553 0 1 0.448 1 1 S 60.426 20.963 59.873 20.963 z" style="stroke: none; stroke-width: 1; stroke-dasharray: none; stroke-linecap: butt; stroke-linejoin: miter; stroke-miterlimit: 10; fill: rgb(0,0,0); fill-rule: nonzero; opacity: 1;" transform=" matrix(1 0 0 1 0 0) " stroke-linecap="round" />
	<path d="M 81.37 20.963 h -4.749 c -0.553 0 -1 -0.448 -1 -1 s 0.447 -1 1 -1 h 4.749 c 0.553 0 1 0.448 1 1 S 81.923 20.963 81.37 20.963 z" style="stroke: none; stroke-width: 1; stroke-dasharray: none; stroke-linecap: butt; stroke-linejoin: miter; stroke-miterlimit: 10; fill: rgb(0,0,0); fill-rule: nonzero; opacity: 1;" transform=" matrix(1 0 0 1 0 0) " stroke-linecap="round" />
	<path d="M 41.4 68.457 H 8.63 c -0.552 0 -1 -0.447 -1 -1 v -30 c 0 -0.552 0.448 -1 1 -1 H 41.4 c 0.552 0 1 0.448 1 1 v 30 C 42.4 68.01 41.952 68.457 41.4 68.457 z M 9.63 66.457 H 40.4 v -28 H 9.63 V 66.457 z" style="stroke: none; stroke-width: 1; stroke-dasharray: none; stroke-linecap: butt; stroke-linejoin: miter; stroke-miterlimit: 10; fill: rgb(0,0,0); fill-rule: nonzero; opacity: 1;" transform=" matrix(1 0 0 1 0 0) " stroke-linecap="round" />
	<path d="M 41.4 68.457 H 8.63 c -0.369 0 -0.708 -0.203 -0.881 -0.528 c -0.174 -0.324 -0.155 -0.719 0.049 -1.026 l 8.157 -12.248 c 0.154 -0.23 0.397 -0.388 0.671 -0.433 c 0.273 -0.044 0.554 0.027 0.774 0.197 l 6.291 4.875 l 9.898 -14.093 c 0.16 -0.227 0.406 -0.378 0.681 -0.416 c 0.279 -0.036 0.554 0.041 0.769 0.215 l 6.993 5.696 c 0.233 0.19 0.369 0.475 0.369 0.775 v 15.985 C 42.4 68.01 41.952 68.457 41.4 68.457 z M 10.497 66.457 H 40.4 v -14.51 l -5.792 -4.718 l -9.884 14.072 c -0.157 0.224 -0.399 0.373 -0.669 0.414 c -0.27 0.036 -0.545 -0.032 -0.762 -0.199 l -6.27 -4.859 L 10.497 66.457 z" style="stroke: none; stroke-width: 1; stroke-dasharray: none; stroke-linecap: butt; stroke-linejoin: miter; stroke-miterlimit: 10; fill: rgb(0,0,0); fill-rule: nonzero; opacity: 1;" transform=" matrix(1 0 0 1 0 0) " stroke-linecap="round" />
	<path d="M 81.37 38.457 H 51.233 c -0.553 0 -1 -0.448 -1 -1 s 0.447 -1 1 -1 H 81.37 c 0.553 0 1 0.448 1 1 S 81.923 38.457 81.37 38.457 z" style="stroke: none; stroke-width: 1; stroke-dasharray: none; stroke-linecap: butt; stroke-linejoin: miter; stroke-miterlimit: 10; fill: rgb(0,0,0); fill-rule: nonzero; opacity: 1;" transform=" matrix(1 0 0 1 0 0) " stroke-linecap="round" />
	<path d="M 81.37 48.457 H 51.233 c -0.553 0 -1 -0.447 -1 -1 s 0.447 -1 1 -1 H 81.37 c 0.553 0 1 0.447 1 1 S 81.923 48.457 81.37 48.457 z" style="stroke: none; stroke-width: 1; stroke-dasharray: none; stroke-linecap: butt; stroke-linejoin: miter; stroke-miterlimit: 10; fill: rgb(0,0,0); fill-rule: nonzero; opacity: 1;" transform=" matrix(1 0 0 1 0 0) " stroke-linecap="round" />
	<path d="M 81.37 58.457 H 51.233 c -0.553 0 -1 -0.447 -1 -1 s 0.447 -1 1 -1 H 81.37 c 0.553 0 1 0.447 1 1 S 81.923 58.457 81.37 58.457 z" style="stroke: none; stroke-width: 1; stroke-dasharray: none; stroke-linecap: butt; stroke-linejoin: miter; stroke-miterlimit: 10; fill: rgb(0,0,0); fill-rule: nonzero; opacity: 1;" transform=" matrix(1 0 0 1 0 0) " stroke-linecap="round" />
	<path d="M 81.37 68.457 H 51.233 c -0.553 0 -1 -0.447 -1 -1 s 0.447 -1 1 -1 H 81.37 c 0.553 0 1 0.447 1 1 S 81.923 68.457 81.37 68.457 z" style="stroke: none; stroke-width: 1; stroke-dasharray: none; stroke-linecap: butt; stroke-linejoin: miter; stroke-miterlimit: 10; fill: rgb(0,0,0); fill-rule: nonzero; opacity: 1;" transform=" matrix(1 0 0 1 0 0) " stroke-linecap="round" />
	<path d="M 71.37 20.963 h -4.749 c -0.553 0 -1 -0.448 -1 -1 s 0.447 -1 1 -1 h 4.749 c 0.553 0 1 0.448 1 1 S 71.923 20.963 71.37 20.963 z" style="stroke: none; stroke-width: 1; stroke-dasharray: none; stroke-linecap: butt; stroke-linejoin: miter; stroke-miterlimit: 10; fill: rgb(0,0,0); fill-rule: nonzero; opacity: 1;" transform=" matrix(1 0 0 1 0 0) " stroke-linecap="round" />
</g>
</svg>