<svg xmlns="http://www.w3.org/2000/svg" xmlns:xlink="http://www.w3.org/1999/xlink" version="1.1" width="256" height="256" viewBox="0 0 256 256" xml:space="preserve">

<defs>
</defs>
<g style="stroke: none; stroke-width: 0; stroke-dasharray: none; stroke-linecap: butt; stroke-linejoin: miter; stroke-miterlimit: 10; fill: none; fill-rule: nonzero; opacity: 1;" transform="translate(1.4065934065934016 1.4065934065934016) scale(2.81 2.81)" >
	<rect x="4.18" y="19.06" rx="0" ry="0" width="81.65" height="51.71" style="stroke: none; stroke-width: 1; stroke-dasharray: none; stroke-linecap: butt; stroke-linejoin: miter; stroke-miterlimit: 10; fill: rgb(255,255,255); fill-rule: nonzero; opacity: 1;" transform=" matrix(1 0 0 1 0 0) "/>
	<rect x="4.18" y="70.76" rx="0" ry="0" width="81.64" height="0.02" style="stroke: none; stroke-width: 1; stroke-dasharray: none; stroke-linecap: butt; stroke-linejoin: miter; stroke-miterlimit: 10; fill: rgb(195,0,0); fill-rule: nonzero; opacity: 1;" transform=" matrix(1 0 0 1 0 0) "/>
	<path d="M 11.474 34.566 c 0.001 0.001 -2.235 0 -2.235 0 l -0.919 7.557 c -0.478 4.041 -1.021 7.988 -1.129 8.849 l -0.121 0.959 l -0.076 0.608 h 2.512 L 9.93 48.2 c 0.051 -0.005 0.959 -0.016 0.992 -0.003 c 0.036 0.014 0.242 4.344 0.242 4.342 c 0 -0.002 2.429 0 2.428 0 C 13.591 52.539 11.473 34.563 11.474 34.566 z M 9.98 46.32 c -0.02 -0.007 0.417 -7.781 0.434 -7.779 c -0.026 -0.031 0.372 5.965 0.436 7.774 C 10.838 46.317 9.997 46.326 9.98 46.32 z" style="stroke: none; stroke-width: 1; stroke-dasharray: none; stroke-linecap: butt; stroke-linejoin: miter; stroke-miterlimit: 10; fill: rgb(195,0,0); fill-rule: nonzero; opacity: 1;" transform=" matrix(1 0 0 1 0 0) " stroke-linecap="round" />
	<path d="M 23.846 36.778 c -0.544 -1.551 -1.528 -2.212 -3.95 -2.212 h -2.234 l 0.001 17.973 h 2.16 c 1.893 0 2.258 -0.084 2.949 -0.666 c 0.434 -0.365 0.933 -1.145 1.109 -1.732 C 24.316 48.689 24.288 38.04 23.846 36.778 z M 21.496 49.315 c -0.189 0.451 -1.394 0.455 -1.391 0.45 c 0.005 -0.01 0.088 -12.428 0.092 -12.428 c 0.002 0 0.731 -0.009 1.115 0.375 c 0.375 0.375 0.44 1.223 0.44 5.745 C 21.752 46.595 21.654 48.928 21.496 49.315 z" style="stroke: none; stroke-width: 1; stroke-dasharray: none; stroke-linecap: butt; stroke-linejoin: miter; stroke-miterlimit: 10; fill: rgb(195,0,0); fill-rule: nonzero; opacity: 1;" transform=" matrix(1 0 0 1 0 0) " stroke-linecap="round" />
	<path d="M 29.969 52.539 c -0.504 -5.994 -1.219 -11.978 -1.691 -17.973 c 0 -0.001 2.092 -0.003 2.092 0 c 0.492 3.521 0.473 7.095 0.898 10.623 l 1.366 -10.623 c 0 0 2.174 0.001 2.173 0 c -0.003 -0.002 -2.169 17.973 -2.169 17.973 C 32.64 52.539 29.969 52.539 29.969 52.539 z" style="stroke: none; stroke-width: 1; stroke-dasharray: none; stroke-linecap: butt; stroke-linejoin: miter; stroke-miterlimit: 10; fill: rgb(195,0,0); fill-rule: nonzero; opacity: 1;" transform=" matrix(1 0 0 1 0 0) " stroke-linecap="round" />
	<rect x="38.62" y="34.57" rx="0" ry="0" width="2.46" height="17.97" style="stroke: none; stroke-width: 1; stroke-dasharray: none; stroke-linecap: butt; stroke-linejoin: miter; stroke-miterlimit: 10; fill: rgb(195,0,0); fill-rule: nonzero; opacity: 1;" transform=" matrix(1 0 0 1 0 0) "/>
	<path d="M 46.885 52.256 c -0.966 -0.468 -1.507 -1.808 -1.408 -3.49 l -0.048 -1.497 h 1.225 h 1.174 l 0.051 1.361 c 0.113 1.134 0.227 1.361 0.68 1.361 c 0.461 0 0.556 -0.208 0.623 -1.361 c 0.083 -1.425 0.044 -1.548 -2.619 -5.758 c -1.146 -1.811 -1.587 -3.948 -1.147 -5.55 c 0.43 -1.565 1.604 -2.756 2.727 -2.756 c 2.038 0 3.273 1.501 3.273 3.963 v 1.249 c 0 0 -2.34 -0.029 -2.342 -0.031 c -0.004 -0.004 0.016 -0.512 0.028 -1.142 c 0.025 -1.267 -0.613 -1.703 -1.154 -1.254 c -0.288 0.239 -0.366 0.699 -0.277 1.629 c 0.097 1.014 0.49 1.85 1.804 3.843 c 1.828 2.772 2.215 3.798 2.206 5.668 c -0.007 1.451 -0.66 3.354 -1.586 3.79 C 49.251 52.68 47.665 52.633 46.885 52.256 z" style="stroke: none; stroke-width: 1; stroke-dasharray: none; stroke-linecap: butt; stroke-linejoin: miter; stroke-miterlimit: 10; fill: rgb(195,0,0); fill-rule: nonzero; opacity: 1;" transform=" matrix(1 0 0 1 0 0) " stroke-linecap="round" />
	<path d="M 62.052 43.439 c -0.016 -2.416 0.03 -4.23 -0.024 -5.387 c -0.16 -1.995 -1.031 -3.461 -3.252 -3.485 c -1.886 0.051 -2.922 1.511 -2.94 3.327 c -0.085 3.074 -0.17 10.279 0.07 12.272 c 0.303 1.536 1.128 2.383 3.124 2.374 c 1.941 -0.083 2.475 -1.031 2.786 -2.33 C 61.958 49.259 62.079 47.492 62.052 43.439 z M 59.019 50.099 c -0.972 0.015 -0.89 -0.6 -0.943 -1.736 c -0.052 -1.121 -0.052 -9.362 0 -10.312 c 0.044 -0.817 0.394 -1.282 0.903 -1.275 c 0.433 0.006 0.776 0.202 0.809 1.161 c 0.027 0.825 0.008 9.062 0 10.276 C 59.783 48.887 59.888 50.085 59.019 50.099 z" style="stroke: none; stroke-width: 1; stroke-dasharray: none; stroke-linecap: butt; stroke-linejoin: miter; stroke-miterlimit: 10; fill: rgb(195,0,0); fill-rule: nonzero; opacity: 1;" transform=" matrix(1 0 0 1 0 0) " stroke-linecap="round" />
	<path d="M 71.763 43.317 l 0.577 -0.733 c 0.477 -0.606 0.577 -1.105 0.577 -2.882 c 0 -2.321 -0.383 -3.581 -1.351 -4.444 c -0.474 -0.422 -1.089 -0.615 -2.759 -0.691 h -2.149 v 17.973 h 2.454 v -7.893 c 0.006 0.002 0.73 -0.016 0.818 0.019 c 0.469 0.191 0.538 1.081 0.538 4.356 v 3.516 h 2.446 l 0.003 -3.997 c 0 -3.697 -0.043 -4.043 -0.577 -4.611 L 71.763 43.317 z M 70.452 40.95 c -0.067 0.614 -0.213 0.82 -0.312 0.919 c -0.329 0.329 -0.991 0.331 -0.993 0.334 c -0.001 0.001 0.035 -4.846 0.04 -4.839 c 0.012 0.017 1.313 -0.168 1.313 1.599 C 70.501 39.454 70.513 40.397 70.452 40.95 z" style="stroke: none; stroke-width: 1; stroke-dasharray: none; stroke-linecap: butt; stroke-linejoin: miter; stroke-miterlimit: 10; fill: rgb(195,0,0); fill-rule: nonzero; opacity: 1;" transform=" matrix(1 0 0 1 0 0) " stroke-linecap="round" />
	<path d="M 78.767 52.539 c -0.003 0 0.003 -8.196 0.001 -8.197 c 0 -0.004 -1.816 -9.742 -1.784 -9.775 c 0.001 0.001 1.978 0 1.978 0 c -0.002 -0.002 1.123 6.513 1.148 6.49 c 0.029 -0.027 0.882 -6.493 0.88 -6.49 c 0 0 2.016 0.002 2.015 0 c -0.001 -0.002 0.002 0 0.002 0 c 0.003 -0.002 -1.799 9.8 -1.799 9.809 l 0 8.163 C 81.208 52.538 78.766 52.535 78.767 52.539 z" style="stroke: none; stroke-width: 1; stroke-dasharray: none; stroke-linecap: butt; stroke-linejoin: miter; stroke-miterlimit: 10; fill: rgb(195,0,0); fill-rule: nonzero; opacity: 1;" transform=" matrix(1 0 0 1 0 0) " stroke-linecap="round" />
	<path d="M 69.774 27.511 c 0.007 0.004 0.8 0 0.816 0 c -0.083 -0.727 -0.393 -3.106 -0.41 -3.128 C 70.078 24.885 69.761 27.514 69.774 27.511 z" style="stroke: none; stroke-width: 1; stroke-dasharray: none; stroke-linecap: butt; stroke-linejoin: miter; stroke-miterlimit: 10; fill: rgb(195,0,0); fill-rule: nonzero; opacity: 1;" transform=" matrix(1 0 0 1 0 0) " stroke-linecap="round" />
	<path d="M 20.16 27.515 c 0.002 -0.006 0.727 0.004 0.71 0.002 c 0.005 -0.023 -0.388 -3.114 -0.387 -3.112 C 20.475 24.405 20.155 27.514 20.16 27.515 z" style="stroke: none; stroke-width: 1; stroke-dasharray: none; stroke-linecap: butt; stroke-linejoin: miter; stroke-miterlimit: 10; fill: rgb(195,0,0); fill-rule: nonzero; opacity: 1;" transform=" matrix(1 0 0 1 0 0) " stroke-linecap="round" />
	<path d="M 4.178 19.063 v 13.88 h 81.645 v -13.88 H 4.178 z M 12.218 26.832 c -0.529 0.387 -1.199 0.455 -1.8 0.679 c -0.017 0.9 0.002 1.811 0 2.71 c 0.001 0 -1.616 0.003 -1.613 0 c 0.003 -0.003 -0.001 -1.907 -0.001 -4.128 v -4.062 h 1.373 c 1.92 0 2.709 0.819 2.709 2.747 C 12.886 25.887 12.754 26.299 12.218 26.832 z M 21.059 30.221 c -0.033 -0.019 -0.177 -1.92 -0.177 -1.922 c -0.001 0.001 -0.714 -0.005 -0.715 -0.005 c 0.002 0 -0.21 1.931 -0.205 1.927 c -0.006 -0.001 -1.478 0.002 -1.479 0 c 0.002 -0.003 1.299 -8.192 1.301 -8.19 c -0.002 -0.001 1.145 -0.002 1.143 0 c 0.002 -0.001 1.729 8.193 1.73 8.19 C 22.657 30.219 21.059 30.219 21.059 30.221 z M 32.388 30.221 H 30.83 l 0.017 -3.264 c -0.181 0 -0.362 0.001 -0.543 -0.001 c -0.004 -0.009 -0.001 3.264 -0.001 3.265 h -1.633 v -8.19 h 2.297 c 1.097 0 1.418 1.02 1.418 2.419 c 0 0.919 -0.161 1.135 -0.259 1.337 c -0.047 0.104 -0.188 0.28 -0.188 0.28 c 0.001 -0.001 0.175 0.386 0.175 0.402 c 0.167 0.457 0.275 0.889 0.275 2.059 L 32.388 30.221 z M 42.002 22.835 c 0.001 0.008 0.003 0.852 0.002 0.841 c -0.001 -0.008 -1.628 0.007 -1.65 0.007 c -0.014 0 -0.008 1.651 0 1.651 c 0.007 0 1.068 -0.007 1.077 0 c 0.006 0.005 0.009 1.348 0 1.348 c -0.007 0 -1.073 0 -1.077 0 c -0.005 -0.001 -0.005 2.178 0 2.177 c 0.005 -0.001 1.644 0.002 1.649 0.002 c 0.007 0 -0.011 1.352 -0.011 1.361 c 0 -0.009 -1.698 0 -1.704 0 h -1.547 v -8.19 h 3.263 C 42.01 22.031 42 22.827 42.002 22.835 z M 52.445 30.221 c -0.001 0.001 -1.443 0.002 -1.446 0 c 0 0.001 -1.455 -4.479 -1.453 -4.477 c 0.008 0.005 0.079 4.477 0.081 4.477 h -1.65 v -8.19 h 1.362 c 0 0.003 1.667 4.02 1.667 4.031 c -0.005 -0.017 -0.021 -4.03 -0.022 -4.031 h 1.461 C 52.446 22.031 52.447 30.221 52.445 30.221 z M 62.419 23.69 c -0.001 0 -1.09 0 -1.091 0 c -0.002 0.001 0.008 6.531 0 6.532 c -0.012 0.001 -1.636 0 -1.636 0 c -0.011 0.001 0.005 -6.542 0 -6.542 c -0.006 0 -1.07 -0.002 -1.072 0 c -0.004 0.005 0 -1.648 0 -1.648 c -0.001 0.002 3.801 0 3.799 0 V 23.69 z M 70.883 30.221 c -0.004 0 -0.351 -1.904 -0.358 -1.905 c -0.01 0 -0.758 0.003 -0.739 0 c 0.014 -0.002 -0.296 1.907 -0.294 1.905 c 0 0 -1.22 0 -1.22 0 s 1.26 -8.198 1.257 -8.19 c -0.002 0.007 1.244 0 1.244 0 l 1.512 8.19 H 70.883 z M 81.479 30.221 h -3.261 v -8.19 h 1.656 v 6.828 h 1.605 C 81.48 28.86 81.479 30.221 81.479 30.221 z" style="stroke: none; stroke-width: 1; stroke-dasharray: none; stroke-linecap: butt; stroke-linejoin: miter; stroke-miterlimit: 10; fill: rgb(195,0,0); fill-rule: nonzero; opacity: 1;" transform=" matrix(1 0 0 1 0 0) " stroke-linecap="round" />
	<path d="M 30.303 23.689 c 0.006 0 0.001 0.612 0.001 0.818 c 0 0.209 -0.006 0.817 -0.001 0.817 c 0.004 0 0.541 -0.003 0.55 0 c 0.003 0.001 0.104 -0.343 0.104 -0.792 c 0 -0.449 -0.105 -0.845 -0.113 -0.845 C 30.841 23.686 30.299 23.689 30.303 23.689 z" style="stroke: none; stroke-width: 1; stroke-dasharray: none; stroke-linecap: butt; stroke-linejoin: miter; stroke-miterlimit: 10; fill: rgb(195,0,0); fill-rule: nonzero; opacity: 1;" transform=" matrix(1 0 0 1 0 0) " stroke-linecap="round" />
	<path d="M 10.685 23.678 c -0.071 0 -0.233 0.004 -0.24 0.005 c -0.005 0.001 -0.009 0.309 -0.009 1.095 c 0 0.786 0.002 1.101 0.003 1.102 c 0.001 0.002 0.078 0 0.111 0.002 c 0.594 0.029 0.696 -0.27 0.699 -0.611 c 0.002 -0.184 0 -0.38 0.005 -0.539 c 0.005 -0.165 0.003 -0.355 -0.007 -0.528 C 11.231 23.918 11.122 23.678 10.685 23.678 z" style="stroke: none; stroke-width: 1; stroke-dasharray: none; stroke-linecap: butt; stroke-linejoin: miter; stroke-miterlimit: 10; fill: rgb(195,0,0); fill-rule: nonzero; opacity: 1;" transform=" matrix(1 0 0 1 0 0) " stroke-linecap="round" />
	<path d="M 19.911 59.355 c -0.161 -0.031 -0.33 -0.009 -0.332 -0.014 c -0.005 -0.012 0.009 2.714 0.001 2.713 c -0.008 -0.001 0.145 0.011 0.315 -0.021 c 0.369 -0.071 0.621 -0.379 0.621 -1.322 C 20.515 59.768 20.28 59.426 19.911 59.355 z" style="stroke: none; stroke-width: 1; stroke-dasharray: none; stroke-linecap: butt; stroke-linejoin: miter; stroke-miterlimit: 10; fill: rgb(195,0,0); fill-rule: nonzero; opacity: 1;" transform=" matrix(1 0 0 1 0 0) " stroke-linecap="round" />
	<path d="M 54.808 59.22 c -0.103 0 -0.28 0.08 -0.342 0.308 c -0.101 0.372 -0.086 1.256 -0.111 2.794 c -0.041 2.466 -0.019 3.355 0.485 3.345 c 0.218 -0.004 0.281 -0.231 0.314 -0.324 c 0.123 -0.341 0.077 -1.342 0.107 -3.008 c 0.028 -1.54 -0.018 -2.44 -0.12 -2.812 C 55.079 59.296 54.917 59.221 54.808 59.22 z" style="stroke: none; stroke-width: 1; stroke-dasharray: none; stroke-linecap: butt; stroke-linejoin: miter; stroke-miterlimit: 10; fill: rgb(195,0,0); fill-rule: nonzero; opacity: 1;" transform=" matrix(1 0 0 1 0 0) " stroke-linecap="round" />
	<path d="M 4.178 54.715 v 16.222 l 81.645 -0.021 V 54.715 C 58.607 54.715 31.393 54.715 4.178 54.715 z M 8.804 66.693 v -8.712 h 2.845 c 0 -0.001 -0.002 1.089 0 1.087 c 0.002 -0.001 -1.773 0 -1.773 0 c 0.001 0.001 0 2.423 -0.001 2.423 c -0.002 0 1.073 0.001 1.075 0 c 0.004 -0.002 -0.001 1.12 0 1.121 c 0 0 -1.061 0.002 -1.06 0 c 0.001 -0.001 0.001 2.988 0 2.988 c -0.002 0.001 1.758 0 1.759 0 c 0.002 0.002 0.004 1.09 0.004 1.09 C 11.653 66.689 8.804 66.693 8.804 66.693 z M 15.443 66.689 l -0.477 -3.216 c 0.003 0.001 -0.708 3.216 -0.706 3.216 c 0.002 0 -1.038 -0.002 -1.037 0 c 0.004 0.006 0.875 -4.468 0.875 -4.469 c 0.001 -0.002 -0.909 -4.24 -0.909 -4.24 c 0 0 1.076 -0.002 1.074 0 c -0.001 0.002 0.703 3.289 0.703 3.286 c 0 0.002 0.526 -3.286 0.526 -3.286 c -0.001 0 0.969 0 0.971 0 c 0.001 0 -0.608 4.24 -0.608 4.24 c 0 0 0.663 4.466 0.663 4.469 C 16.518 66.692 15.445 66.691 15.443 66.689 z M 20.935 62.772 c -0.504 0.591 -1.319 0.649 -1.33 0.637 c -0.022 -0.024 -0.024 3.281 -0.024 3.281 c 0 -0.001 -1.073 0.001 -1.073 0.001 c 0.003 0.004 0 -8.71 0 -8.71 h 1.234 c 1.4 -0.025 1.845 1.296 1.844 2.605 C 21.585 61.486 21.511 62.097 20.935 62.772 z M 23.768 66.69 c -0.001 0 0.001 -8.71 0.001 -8.709 c 0 0.002 1.086 0 1.085 0 c -0.001 0 0.002 7.62 0.002 7.62 l 1.586 0.008 c -0.002 0 0 1.083 0.001 1.082 C 26.445 66.691 23.768 66.69 23.768 66.69 z M 29.229 66.689 c 0 0 -1.087 0 -1.088 -0.001 c -0.001 0 0 -8.708 0 -8.708 c 0.002 0 1.089 0.001 1.088 0 C 29.228 57.98 29.23 66.689 29.229 66.689 z M 34.747 60.413 c -0.001 0.002 -1.004 -0.004 -1.007 -0.004 c -0.003 0.001 0 -0.666 0 -0.915 c -0.001 -0.675 -0.863 -0.621 -0.954 0.072 c -0.062 0.471 -0.009 1.365 -0.015 2.776 c -0.005 1.164 -0.018 2.161 0.014 2.698 c -0.008 0.838 0.955 0.884 0.952 0.026 c 0 -0.283 0.003 -0.812 0.002 -0.811 c 0 0 0.999 -0.002 1.006 0.001 c 0.009 0.355 0.024 0.708 0.005 1.069 c -0.045 0.855 -0.629 1.379 -1.587 1.415 c -1.133 -0.009 -1.505 -0.778 -1.511 -1.839 c -0.001 -0.029 0 -2.559 0 -2.552 c -0.001 0.007 -0.013 -2.963 0.122 -3.386 c 0.221 -0.692 0.773 -0.977 1.412 -0.984 c 0.366 -0.004 0.939 0.023 1.283 0.491 c 0.156 0.212 0.3 0.692 0.282 1.136 C 34.737 59.908 34.748 60.411 34.747 60.413 z M 37.652 66.691 c -0.006 -0.002 -1.088 -0.001 -1.088 0 c 0.001 0.001 0 -8.711 0 -8.71 c 0 0 1.088 -0.001 1.088 0 C 37.65 57.984 37.658 66.692 37.652 66.691 z M 42.806 59.069 c -0.002 -0.001 -1.068 -0.002 -1.072 0 c -0.004 0.003 0.001 7.618 0 7.62 l -1.086 0 c -0.002 0 0 -7.617 0 -7.62 c 0 -0.002 -1.077 0 -1.075 0 c 0.001 0 0.001 -1.087 0 -1.089 c -0.001 -0.001 3.227 -0.005 3.231 0 C 42.807 57.986 42.807 59.071 42.806 59.069 z M 51.538 60.42 c 0.002 0 -1.098 -0.002 -1.101 0 c 0 0 0.002 -0.73 -0.028 -0.855 c -0.097 -0.4 -0.773 -0.452 -0.856 0.047 c -0.061 0.366 -0.021 5.274 -0.019 5.335 c 0.009 0.2 0.028 0.398 0.073 0.477 c 0.053 0.093 0.107 0.267 0.356 0.267 c 0.239 0 0.425 -0.21 0.456 -0.293 c 0.061 -0.164 0.055 -1.146 0.055 -1.149 c 0 -0.001 1.059 0.001 1.056 0.001 c -0.002 0 0.067 1.392 -0.257 1.976 c -0.264 0.481 -0.839 0.593 -1.321 0.601 c -0.711 0.012 -1.366 -0.434 -1.472 -1.212 c -0.078 -0.572 -0.037 -2.008 -0.037 -3.317 c 0 -1.309 -0.034 -2.194 0.021 -2.757 c 0.067 -0.674 0.241 -0.938 0.476 -1.151 c 0.749 -0.678 1.845 -0.474 2.284 0.301 C 51.594 59.337 51.536 60.42 51.538 60.42 z M 55.766 66.387 c -0.495 0.545 -1.512 0.559 -1.999 -0.078 c -0.343 -0.449 -0.467 -0.991 -0.424 -3.974 c 0.034 -2.364 0.153 -3.551 0.653 -3.977 c 0.33 -0.507 1.56 -0.571 1.962 0.141 c 0.355 0.543 0.378 1.669 0.378 3.836 C 56.337 65.153 56.11 66.043 55.766 66.387 z M 61.877 66.689 c -0.001 0 -1.082 0 -1.082 0 c 0.003 0.003 -1.315 -5.557 -1.315 -5.557 c 0.001 0 0 5.557 0 5.557 s -1.084 -0.001 -1.083 0 c 0.001 0.001 -0.001 -8.709 0 -8.708 c 0 0 1.025 -0.002 1.023 0 c -0.001 0 1.374 5.697 1.373 5.696 c -0.001 -0.001 -0.001 -5.698 0 -5.699 c 0.001 -0.002 1.087 0.003 1.087 0.003 C 61.88 57.982 61.877 66.689 61.877 66.689 z M 66.774 59.069 c 0 0.001 -1.095 0.001 -1.093 0 c 0 0 -0.001 7.623 0 7.62 c 0.001 -0.003 -1.08 -0.001 -1.081 0 c -0.003 0.004 0.001 -7.618 0 -7.62 s -1.093 0 -1.094 0 c -0.002 0 -0.001 -1.09 0 -1.089 c 0.001 0.001 3.269 0.001 3.268 0 C 66.771 57.978 66.774 59.069 66.774 59.069 z M 71.361 59.055 c 0.002 0 -1.59 0.004 -1.591 0.001 c -0.001 -0.002 0.001 2.435 0 2.435 c -0.001 0 1.072 0 1.073 0 c 0.002 0.001 0 1.121 0 1.121 s -1.073 -0.001 -1.073 0 c 0 0.001 -0.004 2.987 0 2.988 c 0.001 0 1.592 0.002 1.591 0 c -0.001 -0.002 0 1.087 0 1.089 h -2.684 v -4.378 v -4.33 h 2.684 C 71.362 57.981 71.36 59.055 71.361 59.055 z M 76.875 66.689 c 0.002 -0.001 -1.071 0 -1.071 0 l -1.326 -5.569 c 0 -0.001 0 5.569 0 5.569 s -1.085 0 -1.086 0 c -0.001 0.001 0.014 -8.707 0.014 -8.708 c 0.001 -0.001 1.012 0 1.013 0 l 1.374 5.717 v -5.717 c 0 -0.002 1.08 0 1.082 0 C 76.875 57.981 76.875 66.689 76.875 66.689 z M 81.742 59.069 c 0 0.001 -1.097 0 -1.1 0 c 0 0 0 7.619 0 7.62 c 0 0 -1.089 -0.002 -1.088 0 c 0 0.001 0.001 -7.622 0 -7.62 c -0.001 0.003 -1.089 0.001 -1.093 0 c 0.001 0 0.001 -1.084 0 -1.089 c 0.002 0.001 3.282 0 3.281 0 C 81.739 57.982 81.742 59.069 81.742 59.069 z" style="stroke: none; stroke-width: 1; stroke-dasharray: none; stroke-linecap: butt; stroke-linejoin: miter; stroke-miterlimit: 10; fill: rgb(195,0,0); fill-rule: nonzero; opacity: 1;" transform=" matrix(1 0 0 1 0 0) " stroke-linecap="round" />
	<path d="M 90 75.284 H 0 V 14.716 h 90 V 75.284 z M 2 73.284 h 86 V 16.716 H 2 V 73.284 z" style="stroke: none; stroke-width: 1; stroke-dasharray: none; stroke-linecap: butt; stroke-linejoin: miter; stroke-miterlimit: 10; fill: rgb(195,0,0); fill-rule: nonzero; opacity: 1;" transform=" matrix(1 0 0 1 0 0) " stroke-linecap="round" />
</g>
</svg>